<svg width="45" height="46" viewBox="0 0 45 46" fill="none" xmlns="http://www.w3.org/2000/svg">
<path d="M27.7734 19.9844L22.5 27.0156L17.2266 19.9844H0.878906L6.15234 27.0156V45.1211H38.8477V27.0156L44.1211 19.9844H27.7734Z" fill="#9A1AE9"/>
<path d="M29.5312 11.1953L22.5 19.9844L15.4688 11.1953H18.9844V5.39453H26.0156V11.1953H29.5312Z" fill="#FFE953"/>
<path d="M5.27343 45.1211C5.27343 45.6066 5.66688 46 6.15233 46H38.8476C39.3331 46 39.7266 45.6066 39.7266 45.1211V27.3085L44.8242 20.5117C45.024 20.2453 45.056 19.8889 44.9073 19.5913C44.7583 19.2936 44.4541 19.1055 44.1211 19.1055H27.7734C27.4967 19.1055 27.2365 19.2356 27.0703 19.457L22.5 25.5507L17.9297 19.457C17.7635 19.2356 17.5033 19.1055 17.2266 19.1055H0.878896C0.545873 19.1055 0.241689 19.2936 0.0926869 19.5913C-0.0559719 19.8889 -0.0240429 20.2453 0.175771 20.5117L5.27343 27.3085V33.7832C5.27343 34.2687 5.66688 34.6621 6.15233 34.6621C6.63779 34.6621 7.03124 34.2687 7.03124 33.7832V27.8945H21.6211V44.2422H7.03124V40.8145C7.03124 40.329 6.63779 39.9355 6.15233 39.9355C5.66688 39.9355 5.27343 40.329 5.27343 40.8145V45.1211ZM37.9687 44.2422H23.3789V27.8945H37.9687V44.2422ZM28.2129 20.8633H42.3633L38.4082 26.1367H24.2578L28.2129 20.8633ZM6.59179 26.1367L2.63671 20.8633H16.7871L20.7422 26.1367H6.59179Z" fill="#390460"/>
<path d="M14.6767 10.8146C14.5301 11.1191 14.5713 11.4806 14.7825 11.7443L21.8137 20.5333C21.9806 20.7417 22.2329 20.8633 22.5 20.8633C22.7671 20.8633 23.0195 20.7417 23.1863 20.5333L30.2176 11.7443C30.4287 11.4806 30.4699 11.1191 30.3237 10.8146C30.1771 10.51 29.8691 10.3164 29.5313 10.3164H26.8945V5.39453C26.8945 4.90907 26.5011 4.51562 26.0156 4.51562H18.9844C18.4989 4.51562 18.1055 4.90907 18.1055 5.39453V10.3164H15.4688C15.1309 10.3164 14.823 10.51 14.6767 10.8146ZM18.9844 12.0742C19.4698 12.0742 19.8633 11.6808 19.8633 11.1953V6.27344H25.1367V11.1953C25.1367 11.6808 25.5302 12.0742 26.0156 12.0742H27.7027L22.5 18.5774L17.2973 12.0742H18.9844Z" fill="#FF9A00"/>
<path d="M26.0156 0H18.9844C18.4989 0 18.1055 0.393448 18.1055 0.878906C18.1055 1.36436 18.4989 1.75781 18.9844 1.75781H26.0156C26.5011 1.75781 26.8945 1.36436 26.8945 0.878906C26.8945 0.393448 26.5011 0 26.0156 0Z" fill="#FFDA00"/>
<path d="M6.15234 38.1777C6.63746 38.1777 7.03125 37.7839 7.03125 37.2988C7.03125 36.8137 6.63746 36.4199 6.15234 36.4199C5.66723 36.4199 5.27344 36.8137 5.27344 37.2988C5.27344 37.7839 5.66723 38.1777 6.15234 38.1777Z" fill="#390460"/>
</svg>
