<svg width="505" height="817" viewBox="0 0 505 817" fill="none" xmlns="http://www.w3.org/2000/svg">
<g style="mix-blend-mode:screen" opacity="0.1">
<g style="mix-blend-mode:screen">
<path d="M454.6 689.453L413.186 713.51L371.507 689.453L412.921 665.397L454.6 689.453Z" fill="#0071BC"/>
</g>
</g>
<g style="mix-blend-mode:screen" opacity="0.1">
<g style="mix-blend-mode:screen" opacity="0.8">
<path d="M401.878 721.139L377.664 735.213L353.274 721.139L377.501 707.077L401.878 721.139Z" fill="#0071BC"/>
</g>
</g>
<g style="mix-blend-mode:screen" opacity="0.1">
<g style="mix-blend-mode:screen">
<path d="M272.909 785.863L220.4 816.421L167.539 785.863L220.048 755.306L272.909 785.863Z" fill="#0071BC"/>
</g>
</g>
<g style="mix-blend-mode:screen" opacity="0.1">
<g style="mix-blend-mode:screen">
<path d="M132.528 725.746L108.302 739.807L83.9239 725.734L108.15 711.672L132.528 725.746Z" fill="#9F64EB"/>
</g>
</g>
<g style="mix-blend-mode:screen" opacity="0.1">
<g style="mix-blend-mode:screen">
<path d="M102.144 570.177L51.2358 599.76L0 570.177L50.9085 540.607L102.144 570.177Z" fill="#0071BC"/>
</g>
</g>
<path d="M504.212 623.528L504.174 633.687L275.999 766.256L276.024 756.11L504.212 623.528Z" fill="#512297"/>
<path d="M276.024 756.11L275.999 766.256L46.3124 633.687L46.3376 623.528L276.024 756.11Z" fill="#5E2DA7"/>
<path d="M504.212 623.528L475.314 640.321L276.024 756.11L75.2231 640.207L46.3376 623.528L274.525 490.958L504.212 623.528Z" fill="#7336BA"/>
<path d="M491.998 623.528L464.636 639.427L275.986 749.035L85.8884 639.314L58.5517 623.528L274.563 498.033L491.998 623.528Z" fill="#381077"/>
<path d="M504.212 597.583L504.174 607.742L275.999 740.311L276.024 730.165L504.212 597.583Z" fill="#512297"/>
<path d="M276.024 730.165L275.999 740.311L46.3124 607.742L46.3376 597.583L276.024 730.165Z" fill="#62269E"/>
<path d="M504.212 597.583L276.024 730.165L46.3376 597.583L274.525 465.013L504.212 597.583Z" fill="#7336BA"/>
<path d="M463.817 597.583L275.885 706.775L86.7317 597.583L274.651 488.403L463.817 597.583Z" fill="#62269E" stroke="#512297" stroke-miterlimit="10"/>
<path d="M380.875 663.723L383.117 662.464L371.784 655.893L369.543 657.151L380.875 663.723ZM407.797 648.176L410.05 646.917L398.718 640.346L396.477 641.605L407.797 648.176ZM414.533 644.286L416.774 643.027L405.442 636.456L403.188 637.715L414.533 644.286ZM387.65 659.833L389.891 658.574L378.558 652.003L376.317 653.262L387.65 659.833ZM421.32 640.396L423.561 639.137L412.229 632.566L409.987 633.825L421.32 640.396ZM394.386 655.943L396.628 654.684L385.295 648.125L383.054 649.384L394.386 655.943ZM401.11 652.066L403.364 650.807L392.032 644.236L389.79 645.494L401.11 652.066ZM448.254 624.849L450.495 623.59L439.163 617.019L436.909 618.278L448.254 624.849ZM454.99 620.96L457.232 619.701L445.899 613.142L443.645 614.401L454.99 620.96ZM428.057 636.506L430.298 635.247L418.965 628.689L416.724 629.948L428.057 636.506ZM461.727 617.082L463.968 615.823L452.636 609.252L450.394 610.511L461.727 617.082ZM441.517 628.739L443.771 627.48L432.439 620.909L430.197 622.168L441.517 628.739ZM434.793 632.629L437.035 631.37L425.702 624.799L423.461 626.058L434.793 632.629ZM306.798 706.473L309.039 705.214L297.707 698.643L295.465 699.902L306.798 706.473ZM313.535 702.596L315.776 701.337L304.443 694.766L302.202 696.025L313.535 702.596ZM475.15 609.303L477.404 608.044L466.071 601.473L463.83 602.731L475.15 609.303ZM374.139 667.587L376.38 666.328L365.047 659.757L362.794 661.016L374.139 667.587ZM320.271 698.681L322.513 697.422L311.18 690.851L308.939 692.11L320.271 698.681ZM300.061 710.388L302.303 709.129L290.97 702.571L288.716 703.83L300.061 710.388ZM293.325 714.278L295.579 713.019L284.246 706.448L282.005 707.707L293.325 714.278ZM326.995 694.841L329.249 693.582L317.917 687.011L315.675 688.27L326.995 694.841ZM360.666 675.405L362.919 674.146L351.587 667.575L349.346 668.834L360.666 675.405ZM333.732 690.952L335.973 689.693L324.641 683.134L322.387 684.393L333.732 690.952ZM353.942 679.295L356.183 678.036L344.838 671.364L342.596 672.623L353.942 679.295ZM367.402 671.515L369.656 670.256L358.324 663.685L356.082 664.944L367.402 671.515ZM340.468 687.074L342.71 685.815L331.377 679.244L329.123 680.503L340.468 687.074ZM347.205 683.184L349.446 681.926L338.114 675.354L335.872 676.613L347.205 683.184ZM468.426 613.218L470.667 611.959L459.335 605.388L457.093 606.646L468.426 613.218ZM212.486 675.291L201.153 681.863L203.395 683.121L214.727 676.55L212.486 675.291ZM205.749 671.364L194.417 677.935L196.671 679.194L208.003 672.623L205.749 671.364ZM273.065 710.275L261.732 716.846L263.973 718.105L275.306 711.571L286.639 718.105L288.893 716.846L277.56 710.275L275.382 711.534L273.065 710.275ZM198.987 667.474L187.655 674.045L189.896 675.304L201.229 668.733L198.987 667.474ZM225.934 683.033L214.601 689.592L216.843 690.851L228.175 684.292L225.934 683.033ZM185.552 659.745L174.219 666.316L176.461 667.575L187.793 661.003L185.552 659.745ZM192.289 663.634L180.956 670.206L183.197 671.465L194.53 664.906L192.289 663.634ZM246.156 694.728L234.824 701.299L237.078 702.558L248.41 695.987L246.156 694.728ZM259.629 702.508L248.297 709.066L250.538 710.325L261.871 703.754L259.629 702.508ZM266.366 706.385L255.033 712.956L257.275 714.215L268.607 707.644L266.366 706.385ZM232.683 686.948L221.35 693.52L223.592 694.778L234.924 688.207L232.683 686.948ZM252.83 698.618L241.497 705.189L243.739 706.448L255.071 699.889L252.83 698.618ZM239.357 690.838L228.024 697.409L230.278 698.668L241.611 692.097L239.357 690.838ZM178.753 655.855L167.42 662.426L169.661 663.685L180.994 657.114L178.753 655.855ZM219.159 679.181L207.827 685.752L210.068 687.011L221.401 680.44L219.159 679.181ZM124.935 624.786L113.603 631.358L115.844 632.616L127.177 626.045L124.935 624.786ZM118.186 620.871L106.854 627.443L109.095 628.701L120.428 622.13L118.186 620.871ZM172.054 651.965L160.721 658.536L162.975 659.795L174.308 653.224L172.054 651.965ZM111.475 616.982L100.142 623.553L102.384 624.812L113.716 618.24L111.475 616.982ZM84.5284 601.435L73.1958 608.006L75.4372 609.265L86.7698 602.694L84.5284 601.435ZM91.265 605.325L79.9324 611.896L82.1738 613.155L93.5063 606.583L91.265 605.325ZM98.0016 609.214L86.669 615.786L88.9229 617.045L100.256 610.473L98.0016 609.214ZM158.606 644.198L147.273 650.769L149.514 652.028L160.847 645.457L158.606 644.198ZM151.882 640.308L140.549 646.879L142.79 648.138L154.123 641.567L151.882 640.308ZM131.735 628.651L120.402 635.222L122.656 636.481L133.989 629.923L131.735 628.651ZM165.405 648.088L154.073 654.646L156.327 655.905L167.659 649.347L165.405 648.088ZM138.471 632.541L127.139 639.1L129.38 640.358L140.713 633.787L138.471 632.541ZM145.208 636.418L133.876 642.989L136.117 644.248L147.449 637.677L145.208 636.418ZM104.801 613.104L93.4686 619.663L95.7099 620.922L107.042 614.363L104.801 613.104ZM84.6543 593.731L86.9083 592.472L75.5757 585.901L73.3343 587.159L84.6543 593.731ZM98.1275 585.964L100.369 584.705L89.0363 578.133L86.7823 579.392L98.1275 585.964ZM239.546 504.34L241.799 503.081L230.467 496.51L228.226 497.769L239.546 504.34ZM232.822 508.217L235.063 506.958L223.73 500.4L221.489 501.658L232.822 508.217ZM91.265 589.853L93.5189 588.595L82.1864 582.023L79.9324 583.282L91.265 589.853ZM246.144 500.475L248.385 499.216L237.052 492.645L234.798 493.904L246.144 500.475ZM104.738 582.074L106.98 580.815L95.6469 574.244L93.4056 575.503L104.738 582.074ZM111.475 578.184L113.716 576.925L102.384 570.366L100.142 571.625L111.475 578.184ZM219.222 515.997L221.464 514.738L210.131 508.167L207.89 509.426L219.222 515.997ZM199.013 527.654L201.267 526.395L189.934 519.824L187.693 521.082L199.013 527.654ZM118.186 574.307L120.428 573.048L109.095 566.477L106.854 567.735L118.186 574.307ZM77.7163 597.583L66.3837 604.116L68.625 605.375L79.9576 598.804L77.7792 597.545L79.9576 596.286L68.625 589.727L66.3837 590.986L77.7163 597.583ZM192.301 531.543L194.543 530.285L183.21 523.713L180.969 524.972L192.301 531.543ZM205.762 523.764L208.003 522.505L196.671 515.934L194.417 517.193L205.762 523.764ZM178.828 539.323L181.069 538.064L169.737 531.493L167.495 532.752L178.828 539.323ZM225.972 512.107L228.213 510.848L216.88 504.277L214.639 505.536L225.972 512.107ZM185.552 535.408L187.793 534.149L176.461 527.578L174.219 528.837L185.552 535.408ZM131.672 566.502L133.913 565.243L122.581 558.672L120.327 559.931L131.672 566.502ZM138.409 562.612L140.65 561.353L129.317 554.794L127.063 556.053L138.409 562.612ZM145.145 558.722L147.386 557.463L136.054 550.892L133.813 552.151L145.145 558.722ZM259.629 492.645L261.871 491.386L250.538 484.815L248.297 486.074L259.629 492.645ZM165.342 547.065L167.596 545.806L156.264 539.235L154.022 540.494L165.342 547.065ZM151.882 554.845L154.123 553.586L142.79 547.015L140.549 548.274L151.882 554.845ZM266.366 488.831L268.607 487.572L257.275 481.013L255.033 482.272L266.366 488.831ZM252.918 496.56L255.159 495.301L243.827 488.73L241.585 489.989L252.918 496.56ZM158.606 550.98L160.86 549.721L149.527 543.15L147.286 544.409L158.606 550.98ZM124.935 570.417L127.189 569.158L115.857 562.587L113.615 563.846L124.935 570.417ZM172.079 543.2L174.32 541.942L162.988 535.383L160.734 536.642L172.079 543.2ZM212.486 519.887L214.727 518.628L203.395 512.057L201.141 513.315L212.486 519.887ZM418.877 566.527L430.21 559.956L427.968 558.697L416.636 565.268L418.877 566.527ZM472.694 597.583L470.516 598.842L481.849 605.413L484.103 604.154L472.77 597.62L484.103 591.087L481.849 589.828L470.516 596.399L472.694 597.583ZM371.746 539.323L383.079 532.752L380.838 531.493L369.505 538.064L371.746 539.323ZM466.021 593.731L477.353 587.172L475.112 585.913L463.779 592.472L466.021 593.731ZM459.284 589.853L470.617 583.282L468.375 582.023L457.043 588.595L459.284 589.853ZM432.35 574.307L443.683 567.735L441.429 566.477L430.096 573.048L432.35 574.307ZM439.087 578.184L450.42 571.625L448.166 570.366L436.833 576.925L439.087 578.184ZM452.548 585.964L463.88 579.392L461.639 578.133L450.306 584.705L452.548 585.964ZM425.614 570.417L436.946 563.846L434.705 562.587L423.373 569.158L425.614 570.417ZM445.824 582.074L457.156 575.503L454.915 574.244L443.582 580.815L445.824 582.074ZM412.141 562.637L423.473 556.066L421.232 554.807L409.899 561.378L412.141 562.637ZM331.339 515.997L342.672 509.426L340.431 508.167L329.098 514.738L331.339 515.997ZM338.063 519.887L349.396 513.315L347.155 512.057L335.822 518.628L338.063 519.887ZM311.13 504.34L322.462 497.769L320.221 496.51L308.888 503.081L311.13 504.34ZM317.866 508.217L329.199 501.658L326.957 500.4L315.625 506.958L317.866 508.217ZM324.603 512.107L335.935 505.536L333.681 504.277L322.349 510.848L324.603 512.107ZM364.985 535.408L376.317 528.837L374.063 527.578L362.731 534.149L364.985 535.408ZM358.248 531.518L369.581 524.947L367.327 523.688L355.994 530.259L358.248 531.518ZM351.511 527.628L362.844 521.057L360.603 519.798L349.27 526.37L351.511 527.628ZM344.838 523.764L356.17 517.205L353.929 515.946L342.596 522.505L344.838 523.764ZM398.718 554.87L410.05 548.299L407.797 547.04L396.464 553.611L398.718 554.87ZM304.431 500.45L315.763 493.879L313.522 492.62L302.189 499.191L304.431 500.45ZM385.245 547.027L396.577 540.456L394.336 539.197L383.003 545.769L385.245 547.027ZM405.454 558.684L416.787 552.126L414.546 550.867L403.213 557.425L405.454 558.684ZM378.508 543.138L389.841 536.579L387.65 535.408L376.317 541.967L378.508 543.138ZM391.981 550.917L403.314 544.346L401.06 543.087L389.727 549.658L391.981 550.917ZM275.319 483.506L263.986 476.972L261.745 478.231L273.077 484.802L275.268 483.544L277.447 484.802L288.779 478.231L286.538 476.972L275.319 483.506ZM297.707 496.497L309.039 489.926L306.798 488.667L295.465 495.238L297.707 496.497ZM290.97 492.607L302.303 486.036L300.049 484.777L288.716 491.348L290.97 492.607ZM284.196 488.831L295.528 482.272L293.275 481.013L281.942 487.584L284.196 488.831Z" fill="#62269E"/>
<path d="M379.213 573.073L379.137 599.773L275.558 659.946L275.633 633.259L379.213 573.073Z" fill="#451A89"/>
<path d="M275.633 633.259L275.558 659.946L171.286 599.773L171.361 573.073L275.633 633.259Z" fill="#572493"/>
<path d="M379.213 573.073L275.633 633.258L171.361 573.073L274.953 512.887L379.213 573.073Z" fill="url(#paint0_linear_1_188)"/>
<path d="M173.539 573.073L274.953 514.159L377.035 573.073L275.633 632L173.539 573.073Z" fill="#7336BA"/>
<g style="mix-blend-mode:multiply">
<path d="M210.496 573.073L275.079 535.547L340.091 573.073L275.507 610.599L210.496 573.073Z" stroke="#C3D3DD" stroke-miterlimit="10"/>
</g>
<g style="mix-blend-mode:multiply">
<path d="M214.122 570.505L216.83 568.944L206.857 563.191L204.162 564.752L214.122 570.505ZM289.673 614.137L292.368 612.576L282.408 606.823L279.738 608.421L289.673 614.137ZM300.477 607.842L303.171 606.281L293.211 600.579L290.542 602.127L300.477 607.842ZM311.28 601.611L313.975 600.05L304.015 594.297L301.308 595.858L311.28 601.611ZM224.888 564.223L227.596 562.662L217.661 556.96L214.966 558.521L224.888 564.223ZM228.427 595.38L238.399 589.614L235.692 588.066L225.732 593.819L228.427 595.38ZM260.838 614.086L270.811 608.333L268.103 606.772L258.143 612.525L260.838 614.086ZM250.034 607.792L260.007 602.039L257.3 600.478L247.339 606.231L250.034 607.792ZM217.661 589.186L227.633 583.433L224.926 581.872L214.966 587.625L217.661 589.186ZM206.857 582.892L216.83 577.139L214.122 575.691L204.162 581.444L206.857 582.892ZM239.268 601.598L249.241 595.846L246.534 594.285L236.548 600.1L239.268 601.598ZM235.73 558.067L238.437 556.519L228.464 550.766L225.77 552.315L235.73 558.067ZM332.926 589.224L335.62 587.663L325.66 581.91L322.953 583.471L332.926 589.224ZM304.053 551.773L314.013 546.02L311.318 544.459L301.346 550.212L304.053 551.773ZM325.66 564.248L335.62 558.495L332.926 556.935L322.953 562.687L325.66 564.248ZM314.856 557.954L324.817 552.201L322.172 550.728L312.099 556.481L314.856 557.954ZM293.211 545.567L303.171 539.814L300.477 538.253L290.504 544.006L293.211 545.567ZM282.408 539.273L292.368 533.52L289.673 531.959L279.7 537.724L282.408 539.273ZM343.692 582.905L346.386 581.344L336.464 575.691L333.757 577.252L343.692 582.905ZM257.3 545.517L260.007 543.956L250.034 538.203L247.339 539.764L257.3 545.517ZM246.534 551.773L249.241 550.212L239.268 544.459L236.548 546.045L246.534 551.773ZM322.084 595.405L324.779 593.844L314.819 588.091L312.099 589.677L322.084 595.405ZM268.103 539.298L270.811 537.75L260.838 531.984L258.143 533.545L268.103 539.298ZM336.426 570.48L346.386 564.727L343.692 563.166L333.719 568.919L336.426 570.48Z" fill="#B1B1B1"/>
</g>
<g style="mix-blend-mode:multiply" opacity="0.15">
<g style="mix-blend-mode:multiply" opacity="0.15">
<path d="M264.905 554.052L264.893 558.156L263.734 565.986L263.747 561.882L264.905 554.052Z" fill="black"/>
</g>
<g style="mix-blend-mode:multiply" opacity="0.15">
<path d="M256.922 559.654V563.757L249.581 568.025L249.594 563.921L256.922 559.654Z" fill="black"/>
</g>
<g style="mix-blend-mode:multiply" opacity="0.15">
<path d="M249.594 563.921L249.581 568.025L244.242 564.941L244.255 560.837L249.594 563.921Z" fill="black"/>
</g>
<g style="mix-blend-mode:multiply" opacity="0.15">
<path d="M260.272 570.077L260.259 574.181L255.764 571.587L255.776 567.484L260.272 570.077Z" fill="black"/>
</g>
<g style="mix-blend-mode:multiply" opacity="0.15">
<path d="M276.414 560.698L276.402 564.802L260.259 574.181L260.272 570.077L276.414 560.698Z" fill="black"/>
</g>
<g style="mix-blend-mode:multiply" opacity="0.15">
<path d="M276.414 560.698L260.272 570.077L255.776 567.484L256.922 559.654L249.594 563.921L244.255 560.837L260.397 551.458L264.905 554.052L263.747 561.882L271.075 557.627L276.414 560.698Z" fill="black"/>
</g>
<g style="mix-blend-mode:multiply" opacity="0.15">
<path d="M282.169 568.78V572.884L279.386 574.495L279.398 570.392L282.169 568.78Z" fill="black"/>
</g>
<g style="mix-blend-mode:multiply" opacity="0.15">
<path d="M289.9 573.237L289.887 577.34L282.168 572.884V568.78L289.9 573.237Z" fill="black"/>
</g>
<g style="mix-blend-mode:multiply" opacity="0.15">
<path d="M294.005 570.857L293.992 574.961L289.887 577.341L289.9 573.237L294.005 570.857Z" fill="black"/>
</g>
<g style="mix-blend-mode:multiply" opacity="0.15">
<path d="M275.293 572.783L275.281 576.875L270.131 579.883V575.78L275.293 572.783Z" fill="black"/>
</g>
<g style="mix-blend-mode:multiply" opacity="0.15">
<path d="M270.131 575.779V579.883L264.641 576.711L264.653 572.607L270.131 575.779Z" fill="black"/>
</g>
<g style="mix-blend-mode:multiply" opacity="0.15">
<path d="M282.068 576.686V580.79L275.281 576.875L275.294 572.783L282.068 576.686Z" fill="black"/>
</g>
<g style="mix-blend-mode:multiply" opacity="0.15">
<path d="M286.185 574.307L286.173 578.411L282.068 580.79V576.686L286.185 574.307Z" fill="black"/>
</g>
<g style="mix-blend-mode:multiply" opacity="0.15">
<path d="M294.005 570.857L289.9 573.237L282.168 568.78L279.398 570.392L286.185 574.307L282.068 576.686L275.293 572.783L270.131 575.779L264.653 572.607L280.796 563.229L294.005 570.857Z" fill="black"/>
</g>
<g style="mix-blend-mode:multiply" opacity="0.15">
<path d="M296.913 577.429L296.901 581.532L292.141 578.788L292.154 574.684L296.913 577.429Z" fill="black"/>
</g>
<g style="mix-blend-mode:multiply" opacity="0.15">
<path d="M307.151 583.333L307.138 587.436L302.378 584.692L302.391 580.588L307.151 583.333Z" fill="black"/>
</g>
<g style="mix-blend-mode:multiply" opacity="0.15">
<path d="M311.369 580.878L311.356 584.982L307.138 587.437L307.151 583.333L311.369 580.878Z" fill="black"/>
</g>
<g style="mix-blend-mode:multiply" opacity="0.15">
<path d="M290.467 587.512L290.454 591.616L284.977 588.456L284.989 584.352L290.467 587.512Z" fill="black"/>
</g>
<g style="mix-blend-mode:multiply" opacity="0.15">
<path d="M302.391 580.588L302.378 584.692L290.454 591.616L290.466 587.512L302.391 580.588Z" fill="black"/>
</g>
<g style="mix-blend-mode:multiply" opacity="0.15">
<path d="M311.369 580.878L307.151 583.333L302.391 580.588L290.467 587.512L284.989 584.352L296.914 577.429L292.154 574.684L296.372 572.229L311.369 580.878Z" fill="black"/>
</g>
</g>
<path d="M262.387 551.534L262.374 555.638L261.216 563.468L261.228 559.364L262.387 551.534Z" fill="#BAA2C2"/>
<path d="M254.404 557.136V561.24L247.062 565.507L247.075 561.403L254.404 557.136Z" fill="#BAA2C2"/>
<path d="M247.075 561.403L247.063 565.507L241.724 562.423L241.736 558.319L247.075 561.403Z" fill="#966BC7"/>
<path d="M257.753 567.56L257.74 571.663L253.245 569.07L253.258 564.966L257.753 567.56Z" fill="#966BC7"/>
<path d="M273.896 558.181L273.883 562.285L257.741 571.663L257.753 567.559L273.896 558.181Z" fill="#BAA2C2"/>
<path d="M273.896 558.181L257.753 567.559L253.258 564.966L254.404 557.136L247.075 561.404L241.736 558.319L257.879 548.941L262.387 551.534L261.228 559.364L268.557 555.109L273.896 558.181Z" fill="#F0F5F7"/>
<path d="M279.65 566.263V570.367L276.867 571.978L276.88 567.874L279.65 566.263Z" fill="#BAA2C2"/>
<path d="M287.381 570.719L287.369 574.823L279.65 570.367V566.263L287.381 570.719Z" fill="#966BC7"/>
<path d="M291.486 568.34L291.474 572.444L287.369 574.823L287.381 570.719L291.486 568.34Z" fill="#BAA2C2"/>
<path d="M272.775 570.266L272.763 574.357L267.613 577.366V573.262L272.775 570.266Z" fill="#BAA2C2"/>
<path d="M267.612 573.262V577.366L262.122 574.193L262.135 570.09L267.612 573.262Z" fill="#966BC7"/>
<path d="M279.549 574.168V578.272L272.762 574.357L272.775 570.266L279.549 574.168Z" fill="#966BC7"/>
<path d="M283.667 571.789L283.654 575.893L279.549 578.272V574.168L283.667 571.789Z" fill="#BAA2C2"/>
<path d="M291.486 568.34L287.381 570.719L279.65 566.263L276.88 567.874L283.667 571.789L279.549 574.168L272.775 570.266L267.612 573.262L262.135 570.09L278.278 560.711L291.486 568.34Z" fill="#F0F5F7"/>
<path d="M294.395 574.911L294.383 579.015L289.623 576.27L289.636 572.167L294.395 574.911Z" fill="#966BC7"/>
<path d="M304.632 580.815L304.62 584.919L299.86 582.174L299.873 578.071L304.632 580.815Z" fill="#966BC7"/>
<path d="M308.851 578.36L308.838 582.464L304.62 584.919L304.632 580.815L308.851 578.36Z" fill="#BAA2C2"/>
<path d="M287.948 584.994L287.936 589.098L282.458 585.938L282.471 581.834L287.948 584.994Z" fill="#966BC7"/>
<path d="M299.873 578.071L299.86 582.174L287.936 589.098L287.948 584.994L299.873 578.071Z" fill="#BAA2C2"/>
<path d="M308.851 578.36L304.632 580.815L299.873 578.071L287.948 584.994L282.471 581.835L294.395 574.911L289.636 572.167L293.854 569.712L308.851 578.36Z" fill="#F0F5F7"/>
<path style="mix-blend-mode:color-dodge" opacity="0.5" d="M387.75 464.913C393.195 464.913 397.61 460.5 397.61 455.056C397.61 449.612 393.195 445.199 387.75 445.199C382.305 445.199 377.891 449.612 377.891 455.056C377.891 460.5 382.305 464.913 387.75 464.913Z" fill="url(#paint1_radial_1_188)"/>
<path style="mix-blend-mode:color-dodge" opacity="0.5" d="M201.997 370.335C207.442 370.335 211.856 365.922 211.856 360.479C211.856 355.035 207.442 350.622 201.997 350.622C196.552 350.622 192.137 355.035 192.137 360.479C192.137 365.922 196.552 370.335 201.997 370.335Z" fill="url(#paint2_radial_1_188)"/>
<path style="mix-blend-mode:color-dodge" opacity="0.5" d="M367.805 419.342C367.808 420.319 367.52 421.275 366.978 422.089C366.437 422.902 365.666 423.536 364.764 423.911C363.861 424.287 362.868 424.385 361.909 424.195C360.951 424.005 360.07 423.535 359.379 422.844C358.688 422.153 358.217 421.273 358.027 420.314C357.837 419.356 357.936 418.363 358.311 417.461C358.686 416.558 359.321 415.788 360.135 415.247C360.948 414.705 361.904 414.418 362.882 414.42C364.187 414.42 365.44 414.939 366.363 415.862C367.286 416.785 367.805 418.037 367.805 419.342Z" fill="url(#paint3_radial_1_188)"/>
<path style="mix-blend-mode:color-dodge" opacity="0.5" d="M210.71 526.596C210.713 527.573 210.425 528.529 209.884 529.343C209.342 530.156 208.572 530.791 207.669 531.166C206.767 531.541 205.773 531.64 204.814 531.45C203.856 531.26 202.975 530.789 202.284 530.098C201.593 529.408 201.123 528.527 200.933 527.569C200.743 526.61 200.841 525.617 201.217 524.715C201.592 523.813 202.226 523.042 203.04 522.501C203.854 521.959 204.81 521.672 205.787 521.674C207.092 521.678 208.342 522.197 209.265 523.12C210.187 524.042 210.707 525.292 210.71 526.596Z" fill="url(#paint4_radial_1_188)"/>
<path style="mix-blend-mode:color-dodge" opacity="0.5" d="M317.048 355.808C317.045 356.781 316.754 357.731 316.212 358.539C315.669 359.347 314.9 359.976 314 360.346C313.1 360.717 312.11 360.813 311.156 360.621C310.202 360.43 309.326 359.96 308.639 359.271C307.951 358.583 307.484 357.705 307.295 356.751C307.106 355.797 307.204 354.808 307.577 353.909C307.95 353.01 308.581 352.242 309.39 351.702C310.2 351.162 311.151 350.873 312.124 350.873C312.772 350.873 313.413 351.001 314.011 351.249C314.609 351.497 315.153 351.861 315.61 352.319C316.067 352.778 316.43 353.322 316.677 353.921C316.923 354.519 317.049 355.161 317.048 355.808Z" fill="url(#paint5_radial_1_188)"/>
<path style="mix-blend-mode:color-dodge" opacity="0.5" d="M155.961 426.732C155.964 427.709 155.676 428.665 155.135 429.478C154.593 430.291 153.822 430.926 152.92 431.301C152.018 431.676 151.024 431.775 150.065 431.585C149.107 431.395 148.226 430.924 147.535 430.234C146.844 429.543 146.374 428.662 146.184 427.704C145.993 426.745 146.092 425.752 146.467 424.85C146.843 423.948 147.477 423.177 148.291 422.636C149.104 422.095 150.061 421.807 151.038 421.81C152.344 421.81 153.596 422.328 154.519 423.251C155.442 424.174 155.961 425.426 155.961 426.732Z" fill="url(#paint6_radial_1_188)"/>
<path style="mix-blend-mode:color-dodge" opacity="0.5" d="M364.984 450.549C364.984 451.087 364.825 451.613 364.526 452.06C364.227 452.507 363.802 452.856 363.305 453.061C362.808 453.267 362.262 453.321 361.734 453.216C361.206 453.111 360.722 452.852 360.341 452.472C359.961 452.092 359.702 451.607 359.597 451.08C359.492 450.552 359.546 450.005 359.752 449.509C359.958 449.012 360.306 448.587 360.753 448.288C361.201 447.99 361.727 447.83 362.265 447.83C362.986 447.83 363.678 448.117 364.188 448.627C364.698 449.136 364.984 449.828 364.984 450.549Z" fill="url(#paint7_radial_1_188)"/>
<path style="mix-blend-mode:color-dodge" opacity="0.5" d="M241.497 422.716C241.497 423.251 241.338 423.774 241.041 424.219C240.743 424.665 240.321 425.011 239.826 425.216C239.331 425.421 238.787 425.475 238.262 425.37C237.737 425.266 237.254 425.008 236.876 424.63C236.497 424.251 236.239 423.769 236.135 423.244C236.03 422.719 236.084 422.175 236.289 421.68C236.494 421.186 236.841 420.763 237.286 420.465C237.731 420.168 238.254 420.009 238.79 420.009C239.508 420.009 240.196 420.294 240.704 420.802C241.212 421.31 241.497 421.998 241.497 422.716Z" fill="url(#paint8_radial_1_188)"/>
<path style="mix-blend-mode:color-dodge" opacity="0.5" d="M205.283 465.077C205.288 465.612 205.134 466.136 204.841 466.584C204.548 467.032 204.128 467.383 203.635 467.592C203.142 467.802 202.599 467.86 202.073 467.761C201.547 467.661 201.062 467.408 200.68 467.033C200.298 466.658 200.035 466.178 199.926 465.654C199.817 465.13 199.865 464.586 200.065 464.089C200.266 463.593 200.609 463.167 201.051 462.865C201.493 462.564 202.015 462.4 202.551 462.395C202.906 462.392 203.259 462.459 203.589 462.591C203.918 462.724 204.219 462.921 204.472 463.17C204.726 463.419 204.928 463.716 205.067 464.043C205.207 464.37 205.28 464.721 205.283 465.077Z" fill="url(#paint9_radial_1_188)"/>
<path style="mix-blend-mode:color-dodge" opacity="0.5" d="M346.449 518.766C346.449 519.301 346.29 519.825 345.993 520.27C345.695 520.715 345.273 521.062 344.778 521.267C344.283 521.471 343.739 521.525 343.214 521.421C342.689 521.316 342.206 521.058 341.828 520.68C341.449 520.301 341.191 519.819 341.087 519.294C340.982 518.769 341.036 518.225 341.241 517.73C341.446 517.236 341.793 516.813 342.238 516.516C342.683 516.218 343.207 516.06 343.742 516.06C344.46 516.06 345.149 516.345 345.656 516.852C346.164 517.36 346.449 518.048 346.449 518.766Z" fill="url(#paint10_radial_1_188)"/>
<path style="mix-blend-mode:color-dodge" opacity="0.5" d="M417.87 473.725C417.87 474.26 417.711 474.783 417.413 475.228C417.116 475.673 416.693 476.02 416.198 476.225C415.704 476.43 415.159 476.483 414.634 476.379C414.109 476.275 413.627 476.017 413.248 475.638C412.87 475.26 412.612 474.778 412.507 474.253C412.403 473.728 412.456 473.183 412.661 472.689C412.866 472.194 413.213 471.772 413.658 471.474C414.104 471.177 414.627 471.018 415.162 471.018C415.88 471.018 416.569 471.303 417.077 471.811C417.584 472.318 417.87 473.007 417.87 473.725Z" fill="url(#paint11_radial_1_188)"/>
<path style="mix-blend-mode:color-dodge" opacity="0.5" d="M187.793 463.654C187.791 464.188 187.63 464.71 187.331 465.154C187.032 465.597 186.608 465.942 186.113 466.145C185.619 466.348 185.075 466.4 184.55 466.294C184.026 466.188 183.545 465.929 183.167 465.55C182.79 465.171 182.533 464.689 182.43 464.164C182.327 463.64 182.381 463.096 182.586 462.602C182.791 462.109 183.138 461.687 183.583 461.39C184.028 461.093 184.551 460.935 185.086 460.935C185.443 460.935 185.796 461.005 186.125 461.142C186.454 461.279 186.753 461.479 187.005 461.732C187.256 461.984 187.456 462.284 187.591 462.614C187.726 462.944 187.795 463.297 187.793 463.654Z" fill="url(#paint12_radial_1_188)"/>
<path style="mix-blend-mode:color-dodge" opacity="0.5" d="M107.974 513.353C107.974 513.888 107.815 514.412 107.518 514.857C107.22 515.302 106.798 515.649 106.303 515.854C105.808 516.058 105.264 516.112 104.739 516.008C104.214 515.903 103.731 515.645 103.353 515.267C102.974 514.888 102.716 514.406 102.612 513.881C102.507 513.356 102.561 512.812 102.766 512.317C102.971 511.823 103.318 511.4 103.763 511.103C104.208 510.805 104.732 510.646 105.267 510.646C105.985 510.646 106.674 510.932 107.181 511.439C107.689 511.947 107.974 512.635 107.974 513.353Z" fill="url(#paint13_radial_1_188)"/>
<path style="mix-blend-mode:screen" opacity="0.8" d="M46.3628 -144.767V598.073L276.293 729.807L504.724 598.073V-144.767H46.3628Z" fill="url(#paint14_linear_1_188)"/>
<path style="mix-blend-mode:screen" opacity="0.8" d="M110.639 -144.767V584.984L276.085 691.874L440.448 584.984V-144.767H110.639Z" fill="url(#paint15_linear_1_188)"/>
<path style="mix-blend-mode:screen" opacity="0.8" d="M172.948 -145V572.481L275.596 631.735L377.576 572.494V-145H172.948Z" fill="url(#paint16_linear_1_188)"/>
<path style="mix-blend-mode:color-dodge" opacity="0.5" d="M275.986 574.433C328.212 574.433 370.55 513.676 370.55 438.729C370.55 363.781 328.212 303.025 275.986 303.025C223.76 303.025 181.422 363.781 181.422 438.729C181.422 513.676 223.76 574.433 275.986 574.433Z" fill="url(#paint17_radial_1_188)"/>
<path d="M233.955 438.074L275.268 422.238L316.582 438.074L275.268 453.898L233.955 438.074Z" fill="url(#paint18_linear_1_188)"/>
<g style="mix-blend-mode:multiply">
<path d="M238.651 436.274L275.268 450.297L311.885 436.274L275.268 422.238L238.651 436.274Z" fill="#D1D3D4"/>
</g>
<path d="M316.582 438.086L275.268 511.024L233.942 438.086L275.268 453.898L316.582 438.086Z" fill="url(#paint19_linear_1_188)"/>
<path d="M317.262 430.848L275.268 446.949L233.262 430.848L275.268 356.702L317.262 430.848Z" fill="url(#paint20_linear_1_188)"/>
<g style="mix-blend-mode:multiply">
<path d="M275.268 453.898L316.582 438.086L275.268 511.024V453.898Z" fill="#DCCFEF"/>
</g>
<g style="mix-blend-mode:multiply">
<path d="M317.262 430.848L275.268 446.949V356.702L317.262 430.848Z" fill="#DCCFEF"/>
</g>
<defs>
<linearGradient id="paint0_linear_1_188" x1="171.361" y1="573.073" x2="379.213" y2="573.073" gradientUnits="userSpaceOnUse">
<stop stop-color="#7014AF"/>
<stop offset="1" stop-color="#290060"/>
</linearGradient>
<radialGradient id="paint1_radial_1_188" cx="0" cy="0" r="1" gradientUnits="userSpaceOnUse" gradientTransform="translate(387.75 455.056) scale(9.85935 9.85684)">
<stop stop-color="#E8C9F7"/>
<stop offset="1"/>
</radialGradient>
<radialGradient id="paint2_radial_1_188" cx="0" cy="0" r="1" gradientUnits="userSpaceOnUse" gradientTransform="translate(3355.41 3032.45) scale(154.397 154.357)">
<stop stop-color="#E8C9F7"/>
<stop offset="1"/>
</radialGradient>
<radialGradient id="paint3_radial_1_188" cx="0" cy="0" r="1" gradientUnits="userSpaceOnUse" gradientTransform="translate(3628.8 2218.53) scale(38.5993 38.5891)">
<stop stop-color="#E8C9F7"/>
<stop offset="1"/>
</radialGradient>
<radialGradient id="paint4_radial_1_188" cx="0" cy="0" r="1" gradientUnits="userSpaceOnUse" gradientTransform="translate(2240.08 3167.07) scale(38.5992 38.5894)">
<stop stop-color="#E8C9F7"/>
<stop offset="1"/>
</radialGradient>
<radialGradient id="paint5_radial_1_188" cx="0" cy="0" r="1" gradientUnits="userSpaceOnUse" gradientTransform="translate(3172.8 1653.55) scale(38.5007 38.4908)">
<stop stop-color="#E8C9F7"/>
<stop offset="1"/>
</radialGradient>
<radialGradient id="paint6_radial_1_188" cx="0" cy="0" r="1" gradientUnits="userSpaceOnUse" gradientTransform="translate(1755.9 2283.86) scale(38.5992 38.5891)">
<stop stop-color="#E8C9F7"/>
<stop offset="1"/>
</radialGradient>
<radialGradient id="paint7_radial_1_188" cx="0" cy="0" r="1" gradientUnits="userSpaceOnUse" gradientTransform="translate(2158.98 1576.76) scale(11.6953 11.6923)">
<stop stop-color="#E8C9F7"/>
<stop offset="1"/>
</radialGradient>
<radialGradient id="paint8_radial_1_188" cx="0" cy="0" r="1" gradientUnits="userSpaceOnUse" gradientTransform="translate(1496.46 1424.02) scale(11.6411 11.6381)">
<stop stop-color="#E8C9F7"/>
<stop offset="1"/>
</radialGradient>
<radialGradient id="paint9_radial_1_188" cx="0" cy="0" r="1" gradientUnits="userSpaceOnUse" gradientTransform="translate(1304.52 1648.57) scale(11.6411 11.6381)">
<stop stop-color="#E8C9F7"/>
<stop offset="1"/>
</radialGradient>
<radialGradient id="paint10_radial_1_188" cx="0" cy="0" r="1" gradientUnits="userSpaceOnUse" gradientTransform="translate(2052.71 1933.1) scale(11.6411 11.6381)">
<stop stop-color="#E8C9F7"/>
<stop offset="1"/>
</radialGradient>
<radialGradient id="paint11_radial_1_188" cx="0" cy="0" r="1" gradientUnits="userSpaceOnUse" gradientTransform="translate(2431.34 1694.25) scale(11.6411 11.6379)">
<stop stop-color="#E8C9F7"/>
<stop offset="1"/>
</radialGradient>
<radialGradient id="paint12_radial_1_188" cx="0" cy="0" r="1" gradientUnits="userSpaceOnUse" gradientTransform="translate(1211.83 1640.76) scale(11.6411 11.638)">
<stop stop-color="#E8C9F7"/>
<stop offset="1"/>
</radialGradient>
<radialGradient id="paint13_radial_1_188" cx="0" cy="0" r="1" gradientUnits="userSpaceOnUse" gradientTransform="translate(788.788 1904.41) scale(11.6411 11.6381)">
<stop stop-color="#E8C9F7"/>
<stop offset="1"/>
</radialGradient>
<linearGradient id="paint14_linear_1_188" x1="275.537" y1="651.632" x2="275.537" y2="208.5" gradientUnits="userSpaceOnUse">
<stop stop-color="#8D49E4"/>
<stop offset="1" stop-opacity="0.5"/>
</linearGradient>
<linearGradient id="paint15_linear_1_188" x1="275.539" y1="617.089" x2="275.539" y2="144.5" gradientUnits="userSpaceOnUse">
<stop stop-color="#6449E4"/>
<stop offset="1" stop-opacity="0.5"/>
</linearGradient>
<linearGradient id="paint16_linear_1_188" x1="275.259" y1="562.305" x2="275.259" y2="125" gradientUnits="userSpaceOnUse">
<stop stop-color="#6449E4" stop-opacity="0.5"/>
<stop offset="1" stop-opacity="0.4"/>
</linearGradient>
<radialGradient id="paint17_radial_1_188" cx="0" cy="0" r="1" gradientUnits="userSpaceOnUse" gradientTransform="translate(275.998 439.785) scale(94.5641 136.137)">
<stop stop-color="#FF7EA7"/>
<stop offset="0.28" stop-color="#A9536E"/>
<stop offset="0.54" stop-color="#60303F"/>
<stop offset="0.75" stop-color="#2C161D"/>
<stop offset="0.91" stop-color="#0C0608"/>
<stop offset="1"/>
</radialGradient>
<linearGradient id="paint18_linear_1_188" x1="222.043" y1="422.2" x2="301.116" y2="445.789" gradientUnits="userSpaceOnUse">
<stop stop-color="#EFCF64"/>
<stop offset="1" stop-color="#FF453E"/>
</linearGradient>
<linearGradient id="paint19_linear_1_188" x1="275.256" y1="368.711" x2="275.256" y2="495.251" gradientUnits="userSpaceOnUse">
<stop stop-color="#FFE953"/>
<stop offset="1" stop-color="#FF8B48"/>
</linearGradient>
<linearGradient id="paint20_linear_1_188" x1="18595.6" y1="13224.1" x2="18595.6" y2="22295.7" gradientUnits="userSpaceOnUse">
<stop stop-color="#FFE953"/>
<stop offset="1" stop-color="#FF8B48"/>
</linearGradient>
</defs>
</svg>
