<svg width="241" height="40" viewBox="0 0 241 40" fill="none" xmlns="http://www.w3.org/2000/svg">
<path d="M14.6457 39.2281C23.7281 39.2281 28.3382 32.8048 28.3382 25.2453C28.3382 17.686 19.327 6.7952 19.327 6.7952C19.327 6.7952 15.364 2.51634 14.6406 0.198608H14.498C13.7645 2.51634 9.8116 6.7952 9.8116 6.7952C9.8116 6.7952 0.810669 17.686 0.810669 25.2453C0.810669 32.7996 5.42575 39.2281 14.5031 39.2281H14.6457Z" fill="white"/>
<path d="M55.8655 39.0296C64.9479 39.0296 69.558 32.6059 69.558 25.0467C69.558 17.4874 60.547 6.5966 60.547 6.5966C60.547 6.5966 56.5839 2.31773 55.8606 0H55.7179C54.9894 2.31263 51.0315 6.5966 51.0315 6.5966C51.0315 6.5966 42.0253 17.4874 42.0253 25.0467C42.0253 32.6059 46.6406 39.0296 55.7179 39.0296H55.8655Z" fill="white"/>
<path d="M35.1435 39.2281C44.2262 39.2281 48.836 32.8048 48.836 25.2453C48.836 17.686 39.825 6.7952 39.825 6.7952C39.825 6.7952 35.8619 2.51634 35.1386 0.198608H34.9958C34.2625 2.51634 30.3094 6.7952 30.3094 6.7952C30.3094 6.7952 21.3035 17.686 21.3035 25.2453C21.3035 32.7996 25.9185 39.2281 34.9958 39.2281H35.1435Z" fill="white"/>
<path fill-rule="evenodd" clip-rule="evenodd" d="M28.3382 25.2453C28.3382 32.8048 23.7281 39.2281 14.6457 39.2281H14.5031C5.42575 39.2281 0.810669 32.7996 0.810669 25.2453C0.810669 17.686 9.8116 6.7952 9.8116 6.7952C9.8116 6.7952 13.7645 2.51634 14.498 0.198608H14.6406C15.364 2.51634 19.327 6.7952 19.327 6.7952C19.327 6.7952 28.3382 17.686 28.3382 25.2453ZM20.6922 27.1352C20.6922 30.38 18.6445 33.1357 14.6152 33.1357H14.549C10.5197 33.1357 8.47195 30.38 8.47195 27.1352C8.47195 23.8954 12.4707 19.2192 12.4707 19.2192C12.4707 19.2192 14.2637 17.2683 14.549 16.168H14.6152C14.9005 17.2632 16.6935 19.2192 16.6935 19.2192C16.6935 19.2192 20.6922 23.8903 20.6922 27.1352Z" fill="#5FACCE"/>
<path fill-rule="evenodd" clip-rule="evenodd" d="M69.558 25.0467C69.558 32.6059 64.9479 39.0296 55.8655 39.0296H55.7179C46.6406 39.0296 42.0253 32.6059 42.0253 25.0467C42.0253 17.4874 51.0315 6.5966 51.0315 6.5966C51.0315 6.5966 54.9894 2.31263 55.7179 0H55.8606C56.5839 2.31773 60.547 6.5966 60.547 6.5966C60.547 6.5966 69.558 17.4874 69.558 25.0467ZM61.9121 26.9365C61.9121 30.1814 59.8643 32.9372 55.835 32.9372H55.7688C51.7395 32.9372 49.6917 30.1814 49.6917 26.9365C49.6917 23.6917 53.6905 19.0155 53.6905 19.0155C53.6905 19.0155 55.4836 17.0595 55.7688 15.9643H55.835C56.1202 17.0595 57.9133 19.0155 57.9133 19.0155C57.9133 19.0155 61.9121 23.6917 61.9121 26.9365Z" fill="#F2DB13"/>
<path fill-rule="evenodd" clip-rule="evenodd" d="M48.836 25.2453C48.836 32.8048 44.2262 39.2281 35.1435 39.2281H34.9958C25.9185 39.2281 21.3035 32.7996 21.3035 25.2453C21.3035 17.686 30.3094 6.7952 30.3094 6.7952C30.3094 6.7952 34.2625 2.51634 34.9958 0.198608H35.1386C35.8619 2.51634 39.825 6.7952 39.825 6.7952C39.825 6.7952 48.836 17.686 48.836 25.2453ZM41.1901 27.1352C41.1901 30.38 39.1423 33.1357 35.113 33.1357H35.0468C31.0174 33.1357 28.9697 30.38 28.9697 27.1352C28.9697 23.8954 32.9685 19.2192 32.9685 19.2192C32.9685 19.2192 34.7616 17.2683 35.0468 16.168H35.113C35.3982 17.2632 37.1912 19.2192 37.1912 19.2192C37.1912 19.2192 41.1901 23.8903 41.1901 27.1352Z" fill="#F29624"/>
<path d="M79.9902 4.7373H91.4617C95.9291 4.7373 99.2504 5.39952 101.415 6.72903C103.58 8.05854 104.665 10.1216 104.665 12.9283C104.665 14.7723 104.191 16.3463 103.249 17.6504C102.307 18.9544 101.059 19.7949 99.5152 20.1667V20.3909C101.558 20.9308 103.03 21.8324 103.947 23.0906C104.859 24.3488 105.317 25.984 105.317 27.9961C105.317 30.976 104.196 33.3294 101.955 35.046C99.7138 36.7679 96.6575 37.6236 92.7914 37.6236H79.9902V4.7373ZM88.874 17.3549H91.5483C92.8219 17.3549 93.8099 17.09 94.5079 16.5704C95.2058 16.0458 95.552 15.2664 95.552 14.2323C95.552 12.3883 94.1564 11.4663 91.365 11.4663H88.8688V17.3549H88.874ZM88.874 23.8598V30.7671H92.0016C94.7778 30.7671 96.1633 29.6006 96.1633 27.2575C96.1633 26.1623 95.7915 25.3218 95.0478 24.736C94.3041 24.1502 93.2294 23.8598 91.8183 23.8598H88.874Z" fill="#E2BDF9"/>
<path d="M133.008 24.8225C133.008 28.9944 131.887 32.2444 129.645 34.5722C127.404 36.9052 124.266 38.0717 120.232 38.0717C116.366 38.0717 113.284 36.8798 111.002 34.4959C108.715 32.112 107.574 28.8874 107.574 24.8225C107.574 20.6709 108.694 17.4414 110.936 15.139C113.177 12.8365 116.32 11.6853 120.37 11.6853C122.876 11.6853 125.087 12.2202 127.007 13.2797C128.927 14.3443 130.41 15.8725 131.449 17.8591C132.488 19.8508 133.008 22.1737 133.008 24.8225ZM116.498 24.8225C116.498 27.0129 116.788 28.6787 117.374 29.8299C117.96 30.976 118.943 31.5516 120.319 31.5516C121.684 31.5516 122.646 30.976 123.212 29.8299C123.772 28.6836 124.058 27.0129 124.058 24.8225C124.058 22.6474 123.772 21.0072 123.202 19.8967C122.631 18.7862 121.658 18.231 120.278 18.231C118.928 18.231 117.96 18.7811 117.374 19.8814C116.788 20.9868 116.498 22.6372 116.498 24.8225Z" fill="#E2BDF9"/>
<path d="M152.268 37.6235V23.7222C152.268 22.0259 152.023 20.7474 151.534 19.8865C151.045 19.0256 150.266 18.5926 149.186 18.5926C147.704 18.5926 146.629 19.1835 145.972 20.3704C145.31 21.5573 144.983 23.5898 144.983 26.4678V37.6235H136.186V12.1387H142.824L143.929 15.2867H144.444C145.192 14.0845 146.231 13.188 147.561 12.5869C148.885 11.9859 150.414 11.6853 152.14 11.6853C154.957 11.6853 157.153 12.5003 158.722 14.1355C160.291 15.7706 161.075 18.0731 161.075 21.0377V37.6183H152.268V37.6235Z" fill="#E2BDF9"/>
<path d="M180.768 18.7303H175.348V37.6236H166.551V18.7303H163.179V14.4106L166.734 12.2508V11.8229C166.734 8.46605 167.422 6.05156 168.792 4.57941C170.168 3.11236 172.368 2.37375 175.399 2.37375C176.566 2.37375 177.671 2.46034 178.715 2.64372C179.754 2.82202 180.972 3.13783 182.347 3.5861L180.457 9.27597C179.377 8.97544 178.323 8.82771 177.284 8.82771C176.611 8.82771 176.117 9.03148 175.812 9.44408C175.501 9.85669 175.348 10.5291 175.348 11.4562V12.1286H180.768V18.7303ZM184.049 5.79685C184.049 4.47753 184.415 3.4944 185.149 2.84749C185.882 2.20565 187.069 1.87964 188.704 1.87964C190.34 1.87964 191.531 2.21074 192.28 2.86787C193.029 3.52497 193.406 4.503 193.406 5.79175C193.406 8.36926 191.837 9.66314 188.704 9.66314C185.602 9.66314 184.049 8.37435 184.049 5.79685ZM193.07 37.6236H184.278V12.1388H193.07V37.6236Z" fill="#E2BDF9"/>
<path d="M212.732 11.6904C213.496 11.6904 214.225 11.7516 214.912 11.8687L215.407 11.9604L214.622 20.2584C213.904 20.0801 212.906 19.9884 211.632 19.9884C209.712 19.9884 208.316 20.4265 207.45 21.3026C206.579 22.1788 206.146 23.4472 206.146 25.0925V37.6184H197.349V12.1387H203.889L205.265 16.2087H205.692C206.426 14.8588 207.45 13.7688 208.764 12.9333C210.073 12.103 211.398 11.6904 212.732 11.6904Z" fill="#E2BDF9"/>
<path d="M229.425 38.0717C225.182 38.0717 221.886 36.946 219.538 34.6844C217.189 32.4277 216.018 29.2134 216.018 25.0466C216.018 20.7423 217.108 17.4414 219.278 15.139C221.453 12.8365 224.555 11.6853 228.59 11.6853C232.43 11.6853 235.395 12.6888 237.489 14.6856C239.582 16.6875 240.627 19.5707 240.627 23.3351V27.2471H224.902C224.963 28.6735 225.482 29.7891 226.465 30.599C227.449 31.4089 228.788 31.8112 230.48 31.8112C232.023 31.8112 233.444 31.6636 234.743 31.3732C236.042 31.0828 237.448 30.5837 238.961 29.8757V36.1971C237.58 36.9003 236.154 37.3892 234.687 37.6592C233.215 37.9393 231.463 38.0717 229.425 38.0717ZM228.905 17.6706C227.871 17.6706 227.005 17.9966 226.307 18.6487C225.61 19.3007 225.202 20.3246 225.08 21.7203H232.634C232.604 20.4927 232.257 19.5095 231.59 18.776C230.928 18.0374 230.031 17.6706 228.905 17.6706Z" fill="#E2BDF9"/>
</svg>
