<svg width="50" height="50" viewBox="0 0 50 50" fill="none" xmlns="http://www.w3.org/2000/svg">
<rect opacity="0.3" x="0.00012207" width="50" height="50" rx="10" fill="#250539"/>
<path d="M15.1602 26.455L24.7235 22.8633L34.2868 26.455L24.7235 30.0438L15.1602 26.455Z" fill="url(#paint0_linear_1_442)"/>
<g style="mix-blend-mode:multiply">
<path d="M16.2477 26.0467L24.7238 29.2272L33.1999 26.0467L24.7238 22.8633L16.2477 26.0467Z" fill="#D1D3D4"/>
</g>
<path d="M34.2872 26.4578L24.7238 43L15.1576 26.4578L24.7238 30.0438L34.2872 26.4578Z" fill="url(#paint1_linear_1_442)"/>
<path d="M34.4445 24.8162L24.7238 28.4678L15.0001 24.8162L24.7238 8L34.4445 24.8162Z" fill="url(#paint2_linear_1_442)"/>
<g style="mix-blend-mode:multiply">
<path d="M24.7238 30.0438L34.2871 26.4578L24.7238 43V30.0438Z" fill="#DCCFEF"/>
</g>
<g style="mix-blend-mode:multiply">
<path d="M34.4445 24.8162L24.7238 28.4679V8L34.4445 24.8162Z" fill="#DCCFEF"/>
</g>
<defs>
<linearGradient id="paint0_linear_1_442" x1="12.4028" y1="22.8548" x2="30.6445" y2="28.4091" gradientUnits="userSpaceOnUse">
<stop stop-color="#EFCF64"/>
<stop offset="1" stop-color="#FF453E"/>
</linearGradient>
<linearGradient id="paint1_linear_1_442" x1="24.7209" y1="10.7236" x2="24.7209" y2="39.4226" gradientUnits="userSpaceOnUse">
<stop stop-color="#FFE953"/>
<stop offset="1" stop-color="#FF8B48"/>
</linearGradient>
<linearGradient id="paint2_linear_1_442" x1="4265.54" y1="2926.3" x2="4265.54" y2="4983.73" gradientUnits="userSpaceOnUse">
<stop stop-color="#FFE953"/>
<stop offset="1" stop-color="#FF8B48"/>
</linearGradient>
</defs>
</svg>
