<svg width="89" height="40" viewBox="0 0 89 40" fill="none" xmlns="http://www.w3.org/2000/svg">
<path d="M24.732 5.728L16.74 18.4L24.696 31H17.712L13.068 23.656L8.784 31H1.8L9.756 18.364L1.8 5.728H8.784L13.428 13.108L17.748 5.728H24.732ZM45.5158 23.584C46.7398 22.264 47.3518 20.5 47.3518 18.292C47.3518 16.084 46.7398 14.32 45.5158 13C44.3158 11.68 42.6958 11.02 40.6558 11.02C38.6398 11.02 37.0198 11.68 35.7958 13C34.5958 14.32 33.9958 16.084 33.9958 18.292C33.9958 20.5 34.5958 22.264 35.7958 23.584C37.0198 24.904 38.6398 25.564 40.6558 25.564C42.6958 25.564 44.3158 24.904 45.5158 23.584ZM31.4758 27.58C28.9798 25.132 27.7318 22.036 27.7318 18.292C27.7318 14.548 28.9798 11.464 31.4758 9.04C33.9958 6.592 37.0678 5.368 40.6918 5.368C44.3398 5.368 47.3998 6.592 49.8718 9.04C52.3678 11.464 53.6158 14.548 53.6158 18.292C53.6158 22.036 52.3678 25.132 49.8718 27.58C47.3758 30.028 44.3158 31.252 40.6918 31.252C37.0678 31.252 33.9958 30.028 31.4758 27.58ZM57.5789 31V5.728H74.0309V10.408H63.7349V15.844H71.4389V20.524H63.7349V31H57.5789Z" fill="white"/>
<rect x="79" y="17" width="10" height="14" rx="5" fill="#F7A761"/>
</svg>
