<svg width="241" height="47" viewBox="0 0 241 47" fill="none" xmlns="http://www.w3.org/2000/svg">
<path d="M212.996 23.8232C211.748 22.9723 210.374 22.3673 209.073 21.6109C208.23 21.1193 207.331 20.6843 206.599 20.0603C205.351 19.0014 205.608 16.9215 206.91 16.0138C208.78 14.7281 211.877 15.4465 212.207 18.0749C212.207 18.1316 212.262 18.1695 212.317 18.1695H215.14C215.214 18.1695 215.269 18.1127 215.25 18.0371C215.104 16.2218 214.425 14.7091 213.179 13.7447C211.987 12.8182 210.631 12.3265 209.182 12.3265C201.723 12.3265 201.044 20.4763 205.058 23.048C205.517 23.3506 209.457 25.3927 210.851 26.2814C212.244 27.1701 212.684 28.7963 212.079 30.0821C211.528 31.2545 210.099 32.0676 208.67 31.9731C207.111 31.8785 205.902 31.0088 205.48 29.6472C205.406 29.4015 205.37 28.9287 205.37 28.7207C205.37 28.664 205.315 28.6072 205.26 28.6072H202.2C202.144 28.6072 202.089 28.664 202.089 28.7207C202.089 31.0088 202.64 32.2756 204.142 33.4291C205.553 34.5258 207.092 34.9796 208.688 34.9796C212.867 34.9796 215.03 32.5403 215.469 30.0065C215.854 27.5294 215.14 25.2981 212.996 23.8232Z" fill="#ECD4FB"/>
<path d="M80.0905 12.7428H78.7343H77.2496C77.1945 12.7428 77.1579 12.7806 77.1395 12.8184L74.6286 21.3653C74.5919 21.4789 74.4453 21.4789 74.4086 21.3653L71.8975 12.8184C71.8791 12.7617 71.8425 12.7428 71.7874 12.7428H70.3029H68.9465H67.1136C67.0585 12.7428 67.0035 12.7995 67.0035 12.8562V34.6774C67.0035 34.734 67.0585 34.7908 67.1136 34.7908H70.1745C70.2295 34.7908 70.2846 34.734 70.2846 34.6774V18.094C70.2846 17.9617 70.4678 17.9429 70.5045 18.0562L73.0338 26.6599L73.2171 27.2649C73.2354 27.3217 73.2721 27.3407 73.3271 27.3407H75.6733C75.7282 27.3407 75.7649 27.3027 75.7832 27.2649L75.9665 26.6599L78.496 18.0562C78.5326 17.9239 78.7159 17.9617 78.7159 18.094V34.6774C78.7159 34.734 78.7709 34.7908 78.8258 34.7908H81.8869C81.9418 34.7908 81.9968 34.734 81.9968 34.6774V12.8562C81.9968 12.7995 81.9418 12.7428 81.8869 12.7428H80.0905Z" fill="#ECD4FB"/>
<path d="M166.127 12.7428C166.072 12.7428 166.035 12.7806 166.017 12.8184L163.507 21.3653C163.47 21.4789 163.324 21.4789 163.287 21.3653L160.776 12.8184C160.757 12.7617 160.721 12.7428 160.666 12.7428H156.01C155.955 12.7428 155.9 12.7995 155.9 12.8562V34.6774C155.9 34.734 155.955 34.7908 156.01 34.7908H159.071C159.126 34.7908 159.181 34.734 159.181 34.6774V18.094C159.181 17.9617 159.365 17.9429 159.401 18.0562L161.93 26.6599L162.113 27.2649C162.132 27.3217 162.168 27.3407 162.223 27.3407H164.57C164.625 27.3407 164.661 27.3027 164.68 27.2649L164.863 26.6599L167.393 18.0562C167.429 17.9239 167.613 17.9617 167.613 18.094V34.6774C167.613 34.734 167.668 34.7908 167.723 34.7908H170.783C170.838 34.7908 170.893 34.734 170.893 34.6774V12.8562C170.893 12.7995 170.838 12.7428 170.783 12.7428H166.127Z" fill="#ECD4FB"/>
<path d="M126.646 12.7428H120.946H117.885H112.185C112.13 12.7428 112.075 12.7995 112.075 12.8562V15.5791C112.075 15.6359 112.13 15.6926 112.185 15.6926H117.775V34.6774C117.775 34.734 117.83 34.7908 117.885 34.7908H120.946C121.001 34.7908 121.056 34.734 121.056 34.6774V15.6926H126.646C126.701 15.6926 126.756 15.6359 126.756 15.5791V12.8562C126.756 12.7995 126.72 12.7428 126.646 12.7428Z" fill="#ECD4FB"/>
<path d="M144.702 34.7903H147.487C147.56 34.7903 147.615 34.7147 147.597 34.6392L141.842 12.7424C141.823 12.6857 141.787 12.6667 141.732 12.6667H140.669H138.799H137.736C137.681 12.6667 137.644 12.7046 137.626 12.7424L131.871 34.6392C131.852 34.7147 131.907 34.7903 131.981 34.7903H134.767C134.822 34.7903 134.858 34.7525 134.877 34.7147L136.545 28.3423C136.563 28.2857 136.6 28.2667 136.655 28.2667H142.814C142.869 28.2667 142.905 28.3045 142.924 28.3423L144.592 34.7147C144.61 34.7525 144.665 34.7903 144.702 34.7903ZM137.388 25.1468L139.624 16.6187C139.661 16.5053 139.807 16.5053 139.844 16.6187L142.08 25.1468C142.098 25.2224 142.043 25.298 141.97 25.298H137.498C137.424 25.298 137.37 25.2224 137.388 25.1468Z" fill="#ECD4FB"/>
<path d="M192.21 34.7903H194.996C195.069 34.7903 195.124 34.7147 195.106 34.6392L189.351 12.7424C189.332 12.6857 189.295 12.6667 189.24 12.6667H188.178H186.309H185.245C185.19 12.6667 185.153 12.7046 185.135 12.7424L179.38 34.6392C179.361 34.7147 179.416 34.7903 179.49 34.7903H182.276C182.331 34.7903 182.368 34.7525 182.386 34.7147L184.054 28.3423C184.072 28.2857 184.109 28.2667 184.164 28.2667H190.323C190.378 28.2667 190.414 28.3045 190.433 28.3423L192.1 34.7147C192.119 34.7525 192.155 34.7903 192.21 34.7903ZM184.896 25.1468L187.133 16.6187C187.169 16.5053 187.316 16.5053 187.353 16.6187L189.589 25.1468C189.607 25.2224 189.552 25.298 189.479 25.298H185.006C184.933 25.298 184.878 25.2224 184.896 25.1468Z" fill="#ECD4FB"/>
<path d="M94.4243 31.5573V24.7878C94.4243 24.7312 94.4793 24.6745 94.5343 24.6745H102.691C102.746 24.6745 102.801 24.6177 102.801 24.5609V21.838C102.801 21.7814 102.746 21.7247 102.691 21.7247H94.5343C94.4793 21.7247 94.4243 21.6679 94.4243 21.6111V15.825C94.4243 15.7683 94.4793 15.7115 94.5343 15.7115H103.809C103.864 15.7115 103.919 15.6547 103.919 15.5981V12.8752C103.919 12.8185 103.864 12.7617 103.809 12.7617H94.4243H91.2534C91.1984 12.7617 91.1434 12.8185 91.1434 12.8752V15.7115V21.7435V24.6934V31.6897V34.6773C91.1434 34.7341 91.1984 34.7908 91.2534 34.7908H94.4243H104.194C104.249 34.7908 104.304 34.7341 104.304 34.6773V31.8032C104.304 31.7465 104.249 31.6897 104.194 31.6897H94.516C94.4609 31.6709 94.4243 31.6329 94.4243 31.5573Z" fill="#ECD4FB"/>
<path d="M240.965 34.6017L230.371 23.3129C230.334 23.2751 230.334 23.1996 230.371 23.1618L239.903 12.9508C239.976 12.8752 239.921 12.7617 239.829 12.7617H235.925C235.889 12.7617 235.87 12.7806 235.852 12.7995L227.769 21.4599C227.696 21.5355 227.586 21.4788 227.586 21.3842V12.8752C227.586 12.8185 227.531 12.7617 227.476 12.7617H224.414C224.359 12.7617 224.304 12.8185 224.304 12.8752V34.6963C224.304 34.753 224.359 34.8098 224.414 34.8098H227.476C227.531 34.8098 227.586 34.753 227.586 34.6963V25.0905C227.586 24.9959 227.714 24.9392 227.769 25.0148L236.933 34.7719C236.951 34.7908 236.988 34.8098 237.006 34.8098H240.91C240.984 34.7908 241.039 34.6585 240.965 34.6017Z" fill="#ECD4FB"/>
<path d="M46.0898 1L27.559 15.1818L31.0049 6.82401L46.0898 1Z" fill="#E17726" stroke="#E17726" stroke-width="0.25" stroke-linecap="round" stroke-linejoin="round"/>
<path d="M3.34609 1L21.7119 15.3142L18.431 6.82399L3.34609 1Z" fill="#E27625" stroke="#E27625" stroke-width="0.25" stroke-linecap="round" stroke-linejoin="round"/>
<path d="M39.418 33.8828L34.4875 41.6734L45.0451 44.6799L48.0695 34.0531L39.418 33.8828Z" fill="#E27625" stroke="#E27625" stroke-width="0.25" stroke-linecap="round" stroke-linejoin="round"/>
<path d="M1.38515 34.0531L4.39112 44.6799L14.9304 41.6734L10.0182 33.8828L1.38515 34.0531Z" fill="#E27625" stroke="#E27625" stroke-width="0.25" stroke-linecap="round" stroke-linejoin="round"/>
<path d="M14.3619 20.7222L11.4293 25.2982L21.8769 25.7898L21.5287 14.1608L14.3619 20.7222Z" fill="#E27625" stroke="#E27625" stroke-width="0.25" stroke-linecap="round" stroke-linejoin="round"/>
<path d="M35.0734 20.7223L27.7969 14.0286L27.5586 25.79L38.0061 25.2984L35.0734 20.7223Z" fill="#E27625" stroke="#E27625" stroke-width="0.25" stroke-linecap="round" stroke-linejoin="round"/>
<path d="M14.9305 41.6732L21.254 38.5155L15.8103 34.1285L14.9305 41.6732Z" fill="#E27625" stroke="#E27625" stroke-width="0.25" stroke-linecap="round" stroke-linejoin="round"/>
<path d="M28.1824 38.5155L34.4876 41.6732L33.6261 34.1285L28.1824 38.5155Z" fill="#E27625" stroke="#E27625" stroke-width="0.25" stroke-linecap="round" stroke-linejoin="round"/>
<path d="M34.4876 41.6736L28.1824 38.5159L28.6956 42.7515L28.6405 44.5478L34.4876 41.6736Z" fill="#D5BFB2" stroke="#D5BFB2" stroke-width="0.25" stroke-linecap="round" stroke-linejoin="round"/>
<path d="M14.9305 41.6736L20.7958 44.5478L20.7592 42.7515L21.254 38.5159L14.9305 41.6736Z" fill="#D5BFB2" stroke="#D5BFB2" stroke-width="0.25" stroke-linecap="round" stroke-linejoin="round"/>
<path d="M20.9059 31.3303L15.6637 29.742L19.3661 27.9834L20.9059 31.3303Z" fill="#233447" stroke="#233447" stroke-width="0.25" stroke-linecap="round" stroke-linejoin="round"/>
<path d="M28.5305 31.3303L30.0702 27.9834L33.791 29.742L28.5305 31.3303Z" fill="#233447" stroke="#233447" stroke-width="0.25" stroke-linecap="round" stroke-linejoin="round"/>
<path d="M14.9305 41.6734L15.847 33.8828L10.0184 34.0531L14.9305 41.6734Z" fill="#CC6228" stroke="#CC6228" stroke-width="0.25" stroke-linecap="round" stroke-linejoin="round"/>
<path d="M33.5891 33.8828L34.4872 41.6734L39.4178 34.0531L33.5891 33.8828Z" fill="#CC6228" stroke="#CC6228" stroke-width="0.25" stroke-linecap="round" stroke-linejoin="round"/>
<path d="M38.0061 25.2981L27.5586 25.7897L28.53 31.3302L30.0697 27.9832L33.7905 29.7418L38.0061 25.2981Z" fill="#CC6228" stroke="#CC6228" stroke-width="0.25" stroke-linecap="round" stroke-linejoin="round"/>
<path d="M15.6633 29.7418L19.3658 27.9832L20.9055 31.3302L21.8769 25.7897L11.4293 25.2981L15.6633 29.7418Z" fill="#CC6228" stroke="#CC6228" stroke-width="0.25" stroke-linecap="round" stroke-linejoin="round"/>
<path d="M11.4297 25.2981L15.8104 34.1287L15.6637 29.7418L11.4297 25.2981Z" fill="#E27525" stroke="#E27525" stroke-width="0.25" stroke-linecap="round" stroke-linejoin="round"/>
<path d="M33.7911 29.7418L33.6262 34.1287L38.0069 25.2981L33.7911 29.7418Z" fill="#E27525" stroke="#E27525" stroke-width="0.25" stroke-linecap="round" stroke-linejoin="round"/>
<path d="M21.8774 25.7897L20.9059 31.3302L22.1339 37.8726L22.4089 29.2501L21.8774 25.7897Z" fill="#E27525" stroke="#E27525" stroke-width="0.25" stroke-linecap="round" stroke-linejoin="round"/>
<path d="M27.5594 25.7897L27.0461 29.2313L27.3027 37.8726L28.5308 31.3302L27.5594 25.7897Z" fill="#E27525" stroke="#E27525" stroke-width="0.25" stroke-linecap="round" stroke-linejoin="round"/>
<path d="M28.5304 31.3304L27.3023 37.8728L28.1822 38.5158L33.626 34.1289L33.7909 29.7419L28.5304 31.3304Z" fill="#F5841F" stroke="#F5841F" stroke-width="0.25" stroke-linecap="round" stroke-linejoin="round"/>
<path d="M15.6637 29.7419L15.8104 34.1289L21.2541 38.5158L22.1339 37.8728L20.9059 31.3304L15.6637 29.7419Z" fill="#F5841F" stroke="#F5841F" stroke-width="0.25" stroke-linecap="round" stroke-linejoin="round"/>
<path d="M28.6407 44.5477L28.6956 42.7513L28.2191 42.3352H21.2174L20.7592 42.7513L20.7958 44.5477L14.9305 41.6735L16.9833 43.4131L21.144 46.3819H28.274L32.4531 43.4131L34.4876 41.6735L28.6407 44.5477Z" fill="#C0AC9D" stroke="#C0AC9D" stroke-width="0.25" stroke-linecap="round" stroke-linejoin="round"/>
<path d="M28.1823 38.5156L27.3024 37.8728H22.1336L21.2539 38.5156L20.759 42.7514L21.2172 42.3353H28.2189L28.6955 42.7514L28.1823 38.5156Z" fill="#ECD4FB" stroke="#ECD4FB" stroke-width="0.25" stroke-linecap="round" stroke-linejoin="round"/>
<path d="M46.878 16.1083L48.4361 8.28L46.0899 1L28.1824 14.7091L35.0741 20.7221L44.8068 23.6531L46.9514 21.0626L46.0167 20.3629L47.5012 18.9637L46.3649 18.056L47.8496 16.8836L46.878 16.1083Z" fill="#763E1A" stroke="#763E1A" stroke-width="0.25" stroke-linecap="round" stroke-linejoin="round"/>
<path d="M1 8.28L2.57631 16.1083L1.56821 16.8836L3.07119 18.056L1.93479 18.9637L3.41944 20.3629L2.48466 21.0626L4.62917 23.6531L14.362 20.7221L21.2537 14.7091L3.34613 1L1 8.28Z" fill="#763E1A" stroke="#763E1A" stroke-width="0.25" stroke-linecap="round" stroke-linejoin="round"/>
<path d="M44.8069 23.6531L35.0742 20.7223L38.0069 25.2983L33.6262 34.1288L39.4182 34.0532H48.0695L44.8069 23.6531Z" fill="#F5841F" stroke="#F5841F" stroke-width="0.25" stroke-linecap="round" stroke-linejoin="round"/>
<path d="M14.3621 20.7223L4.62941 23.6531L1.38515 34.0532H10.0182L15.8101 34.1288L11.4295 25.2983L14.3621 20.7223Z" fill="#F5841F" stroke="#F5841F" stroke-width="0.25" stroke-linecap="round" stroke-linejoin="round"/>
<path d="M27.5592 25.7898L28.1824 14.709L31.005 6.82397H18.4313L21.2539 14.709L21.8771 25.7898L22.1154 29.269L22.1337 37.8727H27.3025L27.3209 29.269L27.5592 25.7898Z" fill="#F5841F" stroke="#F5841F" stroke-width="0.25" stroke-linecap="round" stroke-linejoin="round"/>
</svg>
