<svg width="242" height="38" viewBox="0 0 242 38" fill="none" xmlns="http://www.w3.org/2000/svg">
<path fill-rule="evenodd" clip-rule="evenodd" d="M98.9006 33.9034V20.7963C98.9006 17.2658 96.8691 14.3158 93.3386 14.3158C89.8076 14.3158 87.5832 17.2658 87.5832 20.7963V33.9034H82.6017V10.0109H87.2446L87.5832 13.2032C88.9371 10.5913 91.7426 9.62439 94.2576 9.62439C97.3046 9.62439 100.4 10.8815 101.754 14.412C103.689 10.8815 106.687 9.67276 109.927 9.67276C116.505 9.67276 120.036 13.832 120.036 20.6996V33.9034H115.006V20.6996C115.006 17.169 113.265 14.3636 109.734 14.3636C106.204 14.3636 103.931 17.2658 103.931 20.7963V33.9034H98.9006Z" fill="#ECD4FB"/>
<path fill-rule="evenodd" clip-rule="evenodd" d="M129.953 22.0063C129.953 26.2627 132.71 29.7449 137.255 29.7449C141.851 29.7449 144.608 26.2627 144.608 22.0063C144.608 17.7986 141.609 14.1709 137.255 14.1709C132.71 14.1709 129.953 17.7986 129.953 22.0063ZM149.637 22.0063C149.637 29.0678 144.753 34.388 137.255 34.388C129.808 34.388 124.971 29.0678 124.971 22.0063C124.971 14.9937 129.856 9.57629 137.255 9.57629C144.608 9.57629 149.637 14.9937 149.637 22.0063Z" fill="#ECD4FB"/>
<path fill-rule="evenodd" clip-rule="evenodd" d="M170.146 15.9123C168.26 14.171 166.229 13.6873 163.859 13.6873C160.812 13.6394 158.781 14.6547 158.781 16.5411C158.829 18.5243 160.909 19.2982 163.956 19.5884C168.357 19.9749 174.112 20.9422 174.064 27.0848C174.016 31.5343 170.098 34.6298 163.907 34.6298C160.038 34.6298 156.169 33.7591 153.025 30.2286L155.636 26.6979C157.862 29.1646 161.199 30.1804 164.004 30.2286C166.374 30.2286 169.034 29.3579 169.082 27.1331C169.131 25.0048 167.1 24.183 163.569 23.8444C159.071 23.4091 153.896 21.958 153.847 16.6862C153.847 11.4144 159.313 9.43176 163.762 9.43176C167.438 9.43176 170.292 10.2536 172.951 12.6237L170.146 15.9123Z" fill="#ECD4FB"/>
<path fill-rule="evenodd" clip-rule="evenodd" d="M182.578 21.9581C182.578 26.8912 186.06 29.8902 190.316 29.8902C200.618 29.8902 200.618 14.0748 190.316 14.0748C186.06 14.0748 182.578 17.0732 182.578 21.9581ZM198.2 10.0601H203.036C203.036 17.9922 203.036 25.9722 203.036 33.9045H198.296L198.054 30.0353C196.458 33.082 192.782 34.5333 189.832 34.5333C182.868 34.5815 177.596 30.0833 177.596 21.9581C177.596 13.9781 183.061 9.52808 189.929 9.52808C193.315 9.52808 196.555 11.1243 198.054 13.833L198.2 10.0601Z" fill="#ECD4FB"/>
<path fill-rule="evenodd" clip-rule="evenodd" d="M209.808 33.9042H214.79V9.96315H209.808V33.9042ZM215.419 3.04728C215.419 7.15818 209.228 7.15818 209.228 3.04728C209.228 -1.01576 215.419 -1.01576 215.419 3.04728Z" fill="#ECD4FB"/>
<path fill-rule="evenodd" clip-rule="evenodd" d="M241.73 30.8088C239.07 33.4209 236.119 34.5332 232.685 34.5332C225.817 34.5332 220.11 30.2288 220.11 22.0066C220.11 13.7848 225.769 9.47986 232.685 9.47986C235.974 9.47986 238.731 10.4956 241.294 13.0108L238.102 16.3478C236.603 14.8968 234.62 14.2201 232.734 14.2201C228.429 14.2201 225.092 17.2669 225.092 22.0066C225.092 27.0365 228.574 29.6968 232.685 29.6968C234.717 29.6968 236.796 29.068 238.344 27.4719L241.73 30.8088Z" fill="#ECD4FB"/>
<path fill-rule="evenodd" clip-rule="evenodd" d="M9.49095 37.4512L0.39024 28.35C0.0506859 28.0108 0.0506859 27.461 0.39024 27.1218L9.49095 18.0206C9.92435 17.5872 10.6271 17.5872 11.0606 18.0206L19.991 26.951C20.4244 27.3844 20.4244 28.0872 19.991 28.5205L11.0606 37.4512C10.6271 37.8846 9.92435 37.8846 9.49095 37.4512Z" fill="#29CAF3"/>
<path fill-rule="evenodd" clip-rule="evenodd" d="M22.1471 24.7963L13.2166 15.8659C12.7833 15.4325 12.7833 14.7297 13.2166 14.2963L22.1471 5.36582C22.5805 4.93242 23.2833 4.93242 23.7167 5.36582L32.647 14.2963C33.0807 14.7297 33.0807 15.4325 32.647 15.8659L23.7167 24.7963C23.2833 25.2302 22.5805 25.2302 22.1471 24.7963Z" fill="#29CAF3"/>
<path fill-rule="evenodd" clip-rule="evenodd" d="M34.9512 37.307L26.0207 28.3766C25.5873 27.9432 25.5873 27.2404 26.0207 26.807L34.9512 17.8766C35.3845 17.4427 36.0873 17.4427 36.5207 17.8766L45.4511 26.807C45.8845 27.2404 45.8845 27.9432 45.4511 28.3766L36.5207 37.307C36.0873 37.7404 35.3845 37.7404 34.9512 37.307Z" fill="#295AF3"/>
<path fill-rule="evenodd" clip-rule="evenodd" d="M47.6093 24.6503L38.6789 15.7199C38.2455 15.2865 38.2455 14.5837 38.6789 14.1503L47.6093 5.21981C48.0427 4.78643 48.7455 4.78643 49.1788 5.21981L58.1093 14.1503C58.5426 14.5837 58.5426 15.2865 58.1093 15.7199L49.1788 24.6503C48.7455 25.0837 48.0427 25.0837 47.6093 24.6503Z" fill="#295AF3"/>
<path fill-rule="evenodd" clip-rule="evenodd" d="M60.2313 37.3426L51.3009 28.4119C50.8675 27.9785 50.8675 27.2757 51.3009 26.8424L60.2313 17.912C60.6647 17.4786 61.3675 17.4786 61.8009 17.912L70.7313 26.8424C71.1647 27.2757 71.1647 27.9785 70.7313 28.4119L61.8009 37.3426C61.3675 37.776 60.6647 37.776 60.2313 37.3426Z" fill="#1B3997"/>
</svg>
