<svg width="241" height="41" viewBox="0 0 241 41" fill="none" xmlns="http://www.w3.org/2000/svg">
<path d="M98.5229 11.7392H91.1352C91.0209 11.7382 90.9083 11.7657 90.8073 11.8193C90.7064 11.8728 90.6205 11.9506 90.557 12.0457L85.0632 20.2139L79.5696 12.0457C79.5059 11.9508 79.42 11.8731 79.319 11.8196C79.2181 11.7661 79.1055 11.7385 78.9912 11.7392H71.6819C71.5562 11.7384 71.4327 11.7719 71.3248 11.836C71.2169 11.9001 71.1285 11.9924 71.0689 12.103C71.0094 12.2135 70.9813 12.3382 70.9875 12.4637C70.9936 12.5891 71.0336 12.7104 71.1034 12.8148L79.9022 25.8667L70.9213 38.3461C70.8465 38.449 70.8017 38.5705 70.7917 38.697C70.7819 38.8238 70.8073 38.9507 70.8648 39.0638C70.9227 39.177 71.0108 39.2721 71.1193 39.3383C71.2277 39.4045 71.3523 39.4393 71.4794 39.439H78.9305C79.0404 39.4393 79.1486 39.4131 79.2462 39.3631C79.3438 39.3127 79.4281 39.2396 79.4915 39.15L85.1269 31.2389L90.7623 39.15C90.826 39.2393 90.9102 39.3122 91.0076 39.3625C91.1052 39.4129 91.2134 39.4393 91.3232 39.439H98.7254C98.8525 39.4393 98.9771 39.4045 99.0855 39.3383C99.194 39.2721 99.2819 39.177 99.3397 39.0638C99.3976 38.9507 99.4229 38.8238 99.4128 38.697C99.4028 38.5705 99.3581 38.449 99.2833 38.3461L90.3026 25.8667L99.0955 12.8148C99.1651 12.7109 99.2051 12.59 99.2115 12.4651C99.2176 12.3402 99.1901 12.2159 99.1314 12.1055C99.0725 11.9951 98.9848 11.9027 98.8778 11.8382C98.7707 11.7737 98.6481 11.7395 98.5229 11.7392Z" fill="#ECD4FB"/>
<path d="M115.264 28.2492V18.3866H121.336C121.519 18.3866 121.694 18.3142 121.824 18.1852C121.953 18.0563 122.026 17.8812 122.027 17.6985V12.4302C122.027 12.247 121.954 12.0712 121.825 11.9416C121.695 11.812 121.519 11.7392 121.336 11.7392H115.264V4.72746C115.264 4.5447 115.19 4.36966 115.061 4.24068C114.931 4.11172 114.756 4.03931 114.573 4.03931H108.279C108.095 4.03931 107.92 4.11211 107.79 4.24171C107.66 4.3713 107.588 4.54709 107.588 4.73036C107.588 12.5372 108.229 11.7392 102.548 11.7392C102.43 11.7388 102.313 11.7616 102.205 11.8063C102.096 11.851 101.997 11.9167 101.913 11.9997C101.829 12.0826 101.763 12.1813 101.718 12.2899C101.672 12.3985 101.649 12.515 101.648 12.6326V17.4932C101.648 17.6107 101.672 17.7272 101.717 17.8357C101.762 17.9443 101.828 18.0429 101.911 18.1259C101.994 18.2089 102.093 18.2747 102.202 18.3194C102.311 18.3642 102.427 18.387 102.545 18.3866H107.59V29.7442C107.59 36.5015 112.347 39.7717 118.289 39.7717C119.748 39.8034 121.206 39.6487 122.626 39.312C122.775 39.2736 122.907 39.1871 123.002 39.0656C123.097 38.9443 123.148 38.795 123.149 38.6412V33.3846C123.148 33.2792 123.123 33.1754 123.076 33.0811C123.029 32.9869 122.961 32.9048 122.877 32.8406C122.794 32.7766 122.697 32.7324 122.594 32.7113C122.49 32.6904 122.384 32.6932 122.282 32.7193C121.537 32.8862 120.775 32.966 120.012 32.9566C116.71 32.9566 115.264 31.6264 115.264 28.2492Z" fill="#ECD4FB"/>
<path d="M146.703 14.8417C145.471 13.0693 142.504 11.1291 138.644 11.1291C131.202 11.1291 125.494 17.7216 125.494 25.5863C125.494 33.4509 131.202 40.0436 138.644 40.0436C142.504 40.0436 145.471 38.1033 146.703 36.3309V38.5371C146.703 38.6547 146.726 38.7713 146.771 38.88C146.816 38.9887 146.882 39.0877 146.965 39.1709C147.049 39.254 147.148 39.3202 147.256 39.365C147.365 39.4101 147.482 39.4334 147.599 39.4334H153.671C153.854 39.4334 154.03 39.3606 154.16 39.231C154.289 39.1014 154.362 38.9256 154.362 38.7423V0.691053C154.362 0.507774 154.289 0.332001 154.16 0.202404C154.03 0.0728065 153.854 0 153.671 0H147.391C147.3 -7.9981e-07 147.211 0.017893 147.127 0.0526571C147.043 0.0874209 146.967 0.138368 146.903 0.202576C146.839 0.266784 146.789 0.342989 146.754 0.426813C146.72 0.510641 146.703 0.600439 146.703 0.691053V14.8417ZM140.267 33.1242C136.071 33.1242 133.217 29.9091 133.217 25.5892C133.217 21.2694 136.071 18.0541 140.267 18.0541C144.462 18.0541 147.316 21.2665 147.316 25.5892C147.316 29.9118 144.468 33.1242 140.267 33.1242Z" fill="#ECD4FB"/>
<path d="M238.301 11.4068C235.166 11.4068 232.313 13.4568 231.361 16.1718V12.4303C231.361 12.2471 231.289 12.0713 231.159 11.9417C231.029 11.8121 230.853 11.7393 230.67 11.7393H224.384C224.201 11.7393 224.025 11.8121 223.896 11.9417C223.766 12.0713 223.693 12.2471 223.693 12.4303V38.7423C223.693 38.9256 223.766 39.1014 223.896 39.231C224.025 39.3605 224.201 39.4334 224.384 39.4334H230.67C230.853 39.4334 231.029 39.3605 231.159 39.231C231.289 39.1014 231.361 38.9256 231.361 38.7423V26.1936C231.361 21.6511 233.767 18.8233 237.404 18.8233C238.284 18.8236 239.159 18.9422 240.007 19.176C240.109 19.2036 240.216 19.2073 240.319 19.1867C240.423 19.1662 240.521 19.1221 240.605 19.0578C240.689 18.9935 240.756 18.9107 240.803 18.8159C240.85 18.721 240.874 18.6167 240.874 18.511V12.2771C240.873 12.117 240.817 11.962 240.716 11.8382C240.614 11.7145 240.473 11.6295 240.316 11.5976C239.653 11.4614 238.977 11.3974 238.301 11.4068Z" fill="#ECD4FB"/>
<path d="M172.891 11.1292C164.774 11.1292 158.173 17.4903 158.173 25.5863C158.173 33.6823 164.774 40.0436 172.891 40.0436C181.007 40.0436 187.605 33.6823 187.605 25.5863C187.605 17.4903 181.004 11.1292 172.891 11.1292ZM172.891 32.9565C168.86 32.9565 165.896 29.854 165.896 25.5892C165.896 21.3243 168.86 18.2218 172.891 18.2218C176.921 18.2218 179.83 21.3243 179.83 25.5892C179.83 29.854 176.918 32.9565 172.891 32.9565Z" fill="#ECD4FB"/>
<path d="M205.188 11.1292C197.075 11.1292 190.471 17.4903 190.471 25.5863C190.471 33.6823 197.075 40.0436 205.188 40.0436C213.301 40.0436 219.905 33.6823 219.905 25.5863C219.905 17.4903 213.284 11.1292 205.188 11.1292ZM205.188 32.9565C201.157 32.9565 198.194 29.854 198.194 25.5892C198.194 21.3243 201.14 18.2218 205.188 18.2218C209.236 18.2218 212.128 21.3243 212.128 25.5892C212.128 29.854 209.201 32.9565 205.188 32.9565Z" fill="#ECD4FB"/>
<path d="M24.3345 10.7965C19.182 10.7965 14.7928 13.1617 12.3293 16.7818C12.124 17.0709 11.7741 17.7273 11.3057 17.7301C9.05326 17.7475 8.91449 14.9688 8.84221 12.4909C8.83406 12.3134 8.75817 12.1458 8.63013 12.0226C8.50209 11.8994 8.3317 11.83 8.15402 11.8287L1.63096 11.7854C1.53885 11.7853 1.44765 11.8037 1.3627 11.8393C1.27774 11.8749 1.20073 11.927 1.13613 11.9927C1.07154 12.0584 1.02067 12.1362 0.986479 12.2218C0.952293 12.3073 0.935481 12.3988 0.937017 12.4909C1.08159 18.5426 2.19479 22.6543 9.53037 24.2908C9.72581 24.3362 9.89996 24.4469 10.024 24.6046C10.1481 24.7623 10.2146 24.9576 10.2127 25.1582V38.7479C10.2127 38.8386 10.2306 38.9282 10.2654 39.0116C10.3003 39.095 10.3512 39.1709 10.4155 39.2346C10.4797 39.2983 10.556 39.3486 10.6398 39.3828C10.7236 39.4168 10.8133 39.434 10.9038 39.4332H17.2447C17.428 39.4332 17.6038 39.3603 17.7334 39.2307C17.863 39.1011 17.9358 38.9254 17.9358 38.7421V24.7101C17.9358 21.5902 20.1477 18.0598 24.3432 18.0598C28.3362 18.0598 30.7478 21.5989 30.7478 24.7101V38.7479C30.7478 38.9312 30.8204 39.107 30.95 39.2366C31.0796 39.3662 31.2553 39.439 31.4389 39.439H37.774C37.9567 39.4382 38.1316 39.365 38.2607 39.2357C38.3897 39.1061 38.462 38.9307 38.462 38.7479V23.6692C38.4592 16.4579 32.3063 10.7965 24.3345 10.7965Z" fill="#8ED500"/>
<path d="M56.3976 11.1292C47.8911 11.1292 41.6803 17.3891 41.6803 25.5863C41.6803 34.3386 48.1717 39.8903 56.5074 40.0436C63.0539 40.1648 67.4112 36.4177 68.4462 35.1048C68.501 35.0322 68.5408 34.9493 68.563 34.8612C68.5853 34.7727 68.5897 34.681 68.5761 34.5909C68.5622 34.501 68.5308 34.4146 68.4832 34.337C68.4354 34.2594 68.3728 34.1921 68.2989 34.1392L63.9472 30.7389C63.473 30.2675 63.1059 30.522 62.8225 30.7534C62.1256 31.3171 60.7985 32.9451 56.5653 33.1186C52.8729 33.2688 49.568 31.0685 49.1228 27.3559H69.4149C69.5903 27.3548 69.7586 27.2874 69.8862 27.1673C70.0139 27.0471 70.0915 26.8831 70.1032 26.7082C70.161 25.8899 70.161 25.2856 70.161 24.7536C70.158 15.7843 63.7275 11.1292 56.3976 11.1292ZM49.4003 22.2091C50.1289 18.829 53.3182 17.3891 56.172 17.3891C59.0259 17.3891 61.825 18.9418 62.4957 22.2091H49.4003Z" fill="#ECD4FB"/>
</svg>
