<svg width="237" height="47" viewBox="0 0 237 47" fill="none" xmlns="http://www.w3.org/2000/svg">
<path d="M66.7775 24.9305L58.3175 13.6504C57.6127 12.8044 58.1768 11.8174 59.1635 11.8174H63.5347C64.0988 11.8174 64.6625 11.9584 65.0855 12.5224L70.4439 20.1364L75.9429 12.5224C76.2247 12.0994 76.7889 11.8174 77.4937 11.8174H81.8649C82.9927 11.8174 83.2745 12.6634 82.7109 13.5094L74.2509 24.7894L82.7109 36.7745C83.2745 37.6205 82.9927 38.4665 81.8649 38.4665H77.6349C77.0707 38.4665 76.5065 38.1844 76.2247 37.6205L70.4439 29.4425L64.3807 38.0435C64.2395 38.3255 63.8165 38.6075 63.2528 38.6075H58.7405C57.6127 38.6075 57.3308 37.7615 57.8945 36.9155L66.7775 24.9305ZM101.182 11.2534C108.091 11.2534 113.449 16.4704 113.449 23.5204L113.308 25.3535C113.308 26.0584 112.744 26.4814 112.039 26.4814H93.9907C94.1314 28.4148 94.9911 30.2254 96.4002 31.5564C97.8099 32.8874 99.6663 33.6423 101.605 33.6725C103.725 33.5846 105.778 32.9004 107.527 31.6985C108.373 31.2755 108.796 30.9934 109.36 31.6985L111.193 34.2365C111.616 34.8004 111.898 35.3645 111.052 35.9285C108.263 38.1835 104.768 39.382 101.182 39.3125C93.1447 39.3125 87.7869 32.9675 87.7869 25.3535C87.7869 17.5984 93.1447 11.2534 101.182 11.2534ZM107.245 22.2514C107.104 19.0085 104.425 16.3294 101.182 16.3294C99.5156 16.2846 97.894 16.8692 96.6392 17.9667C95.385 19.0642 94.5903 20.5941 94.4137 22.2514H107.245ZM119.794 13.0864C119.794 12.3814 120.358 11.8174 121.063 11.8174H123.037C123.601 11.8174 124.024 12.0994 124.165 12.6634L125.011 14.9194C125.434 14.3554 128.959 11.2534 134.317 11.2534C142.495 11.2534 145.456 17.0344 145.456 23.9434V37.3384C145.456 38.0435 144.892 38.6075 144.187 38.6075H140.38C140.043 38.6075 139.72 38.4738 139.482 38.2358C139.244 37.9978 139.111 37.675 139.111 37.3384V23.6615C139.111 19.4314 136.996 17.0344 133.612 17.0344C129.382 17.0344 126.562 20.1364 126.28 20.9824V37.1975C126.28 38.0435 125.857 38.4665 124.729 38.4665H121.204C120.867 38.4665 120.545 38.3328 120.307 38.0948C120.068 37.8568 119.935 37.534 119.935 37.1975V13.0864H119.794ZM176.758 13.0864C176.758 12.3814 177.322 11.8174 178.027 11.8174H180.001C180.424 11.8174 180.988 12.2404 181.129 12.8044L181.834 15.0604C182.257 14.3554 184.795 11.2534 189.589 11.2534C192.127 11.2534 195.229 11.9584 194.524 13.6504L192.973 16.8934C192.691 17.5984 191.986 17.7394 191.422 17.4574C190.999 17.3164 190.012 17.0344 189.166 17.0344C185.359 17.0344 183.385 19.8545 183.103 20.2775V37.1975C183.103 38.3255 182.398 38.4665 181.27 38.4665H178.027C177.69 38.4665 177.367 38.3328 177.129 38.0948C176.891 37.8568 176.758 37.534 176.758 37.1975V13.0864ZM230.479 1.38338C230.479 0.678398 231.043 0.11438 231.748 0.11438H235.555C236.26 0.11438 236.824 0.678398 236.824 1.38338V37.1975C236.824 37.9025 236.26 38.4665 235.555 38.4665H231.748C231.411 38.4665 231.088 38.3328 230.85 38.0948C230.613 37.8568 230.479 37.534 230.479 37.1975V1.38338ZM169.285 11.2534H163.504V1.38338C163.504 0.678398 162.94 0.11438 162.235 0.11438H158.428C157.723 0.11438 157.159 0.678398 157.159 1.38338V11.2534H151.378C150.673 11.2534 150.109 11.8174 150.109 12.5224V15.4834C150.109 16.1884 150.673 16.7524 151.378 16.7524H157.159V37.3384C157.159 38.0435 157.723 38.6075 158.428 38.6075H162.235C162.94 38.6075 163.504 38.0435 163.504 37.3384V16.6114H169.285C169.99 16.6114 170.554 16.0474 170.554 15.3424V12.3814C170.554 11.8174 169.99 11.2534 169.285 11.2534ZM220.609 11.8174H217.507C216.802 11.8174 216.238 12.3814 216.238 13.0864V13.5094C214.072 11.9229 211.45 11.0818 208.765 11.1124C205.125 11.1865 201.661 12.6944 199.126 15.3082C196.592 17.9221 195.191 21.4307 195.229 25.0714C195.229 32.6854 201.292 39.1715 208.765 39.1715C211.585 39.1715 214.123 38.3255 216.238 36.7745V37.1975C216.238 37.9025 216.802 38.4665 217.507 38.4665H220.609C221.314 38.4665 221.878 37.9025 221.878 37.1975V13.0864C221.878 12.5224 221.173 11.8174 220.609 11.8174ZM208.765 33.3905C204.535 33.3905 201.292 29.7244 201.292 25.0714C201.292 20.5594 204.676 16.8934 208.765 16.8934C212.713 16.8934 215.815 20.1364 216.238 24.0845V25.9174C215.815 30.1474 212.572 33.3905 208.765 33.3905Z" fill="#ECD4FB"/>
<path d="M22.1175 17.1176H22.0395C17.9824 17.1176 14.4715 13.9634 11.8188 11.2944L9.24415 8.62538C8.74867 8.10996 8.47046 7.41196 8.47046 6.6843C8.47046 5.95664 8.74867 5.25864 9.24415 4.74322C9.74138 4.22957 10.4147 3.94116 11.1166 3.94116C11.8186 3.94116 12.4919 4.22957 12.9891 4.74322L15.5638 7.4122C17.3583 9.27243 19.9329 11.6988 22.0395 11.6988H22.1955C24.302 11.6988 26.8767 9.27243 28.6712 7.4122L31.2457 4.74322C31.7431 4.22957 32.4163 3.94116 33.1182 3.94116C33.8204 3.94116 34.4936 4.22957 34.9907 4.74322C35.4863 5.25864 35.7646 5.95664 35.7646 6.6843C35.7646 7.41196 35.4863 8.10996 34.9907 8.62538L32.416 11.2944C29.6854 14.0443 26.0965 17.1176 22.1175 17.1176Z" fill="#E45FC0"/>
<path d="M33.1893 46.294C32.4851 46.294 31.8589 46.0515 31.3114 45.4856L28.7292 42.8183C26.9296 40.9594 24.3475 38.5346 22.2349 38.5346H22.0785C19.9659 38.5346 17.3838 40.9594 15.5842 42.8183L13.0021 45.4856C12.5035 45.9991 11.8282 46.2874 11.1243 46.2874C10.4203 46.2874 9.74503 45.9991 9.2464 45.4856C8.74947 44.9707 8.47046 44.2729 8.47046 43.5458C8.47046 42.8186 8.74947 42.1212 9.2464 41.6059L11.8285 38.9386C14.4888 36.1904 18.0097 33.0383 22.0785 33.1191H22.1567C26.2254 33.1191 29.7464 36.2713 32.4067 38.9386L34.9888 41.6059C35.4858 42.1212 35.7646 42.8186 35.7646 43.5458C35.7646 44.2729 35.4858 44.9707 34.9888 45.4856C34.5193 46.0515 33.8935 46.294 33.1893 46.294Z" fill="#00E1E0"/>
<path d="M3.68398 39.7059C2.95616 39.7059 2.30921 39.455 1.74312 38.8696C1.22954 38.3368 0.941162 37.615 0.941162 36.8627C0.941162 36.1105 1.22954 35.3886 1.74312 34.8558L4.41181 32.0964C6.27179 30.1731 8.69787 27.4137 8.69787 25.1559V25.0723C8.69787 22.8146 6.27179 19.9715 4.41181 18.1319L1.74312 15.3724C1.22954 14.8395 0.941162 14.1179 0.941162 13.3655C0.941162 12.6132 1.22954 11.8916 1.74312 11.3587C2.25849 10.8276 2.95641 10.5294 3.68398 10.5294C4.41157 10.5294 5.10949 10.8276 5.62485 11.3587L8.29353 14.1181C11.0431 16.9612 14.197 20.7241 14.1161 25.0723C14.1161 29.4205 10.9622 33.1834 8.29353 36.0264L5.62485 38.8696C5.13963 39.455 4.41181 39.7059 3.68398 39.7059Z" fill="#455BE6"/>
<path d="M40.5511 39.7059C39.8233 39.7059 39.1764 39.4543 38.6103 38.8675L35.9416 36.1001C33.1923 33.2487 30.0383 29.475 30.1191 25.1142C30.1191 20.7535 33.2729 16.9797 35.9416 14.1285L38.6103 11.3611C39.1258 10.8285 39.8236 10.5294 40.5511 10.5294C41.2789 10.5294 41.9767 10.8285 42.492 11.3611C43.0057 11.8955 43.2941 12.6192 43.2941 13.3737C43.2941 14.1282 43.0057 14.852 42.492 15.3864L39.8233 18.1538C37.9634 20.0826 35.5374 22.85 35.5374 25.1142V25.1981C35.5374 27.4623 37.9634 30.3136 39.8233 32.1585L42.492 34.9258C43.0057 35.4604 43.2941 36.184 43.2941 36.9385C43.2941 37.6932 43.0057 38.4168 42.492 38.9511C41.9261 39.4543 41.2789 39.7059 40.5511 39.7059Z" fill="#27E7A2"/>
</svg>
